<svg width="1440" height="850" viewBox="0 0 1440 850" fill="none" xmlns="http://www.w3.org/2000/svg">
<path d="M1177.29 -4.02991C1258.88 -27.9626 1270.91 -48.8846 1267.49 -66H432C432 -66 576.169 -45.8293 618.569 -28.1741C660.969 -10.5188 725.55 20.7629 738.286 74.1555C754.206 140.896 871.49 111.697 901.793 148.405C932.097 185.112 852.5 175 866.481 205.969C879.747 235.352 942.084 242.535 947.084 273.686C950.739 305.462 827.63 322.765 837.997 381.998C846.29 429.384 892.048 443.396 912.079 448.992C946.846 458.705 1002.28 462.931 994.51 479.93C986.738 496.929 903.5 494.5 916.903 533C916.903 533 930.5 506 988.156 509.895C1060.31 514.77 1073.89 459.953 994.51 425.099C861.156 366.543 1034.8 344.314 1071.5 314C1108.2 283.686 1033.06 280 1026.94 265.5C1022.93 256 1038.15 247.467 1049.99 242.217C1103.73 218.378 1113.24 188.637 1093 172C1072.76 155.363 1004.76 170.48 1008.57 102.67C1012.38 34.8607 1075.29 25.886 1177.29 -4.02991Z" fill="url(#paint0_linear_193_96)"/>
<rect y="-223" width="1440" height="1073" rx="4" fill="#FEF7EC"/>
<mask id="mask0_193_96" style="mask-type:alpha" maskUnits="userSpaceOnUse" x="0" y="-223" width="1440" height="1073">
<rect y="-223" width="1440" height="1073" rx="4" fill="#FEF7EC"/>
</mask>
<g mask="url(#mask0_193_96)">
<path d="M997.106 410.386C997.106 410.386 991.927 399.125 993.546 394.66C995.165 390.195 1000.4 390.637 1001.47 397.86C1001.47 397.86 1008.01 393.121 1011.94 397.359C1016 401.63 1005.96 406.536 997.106 410.386Z" fill="#FCE3E1"/>
<path d="M838.577 325.924C838.577 325.924 841.45 318.777 840.254 315.961C839.058 313.144 835.837 313.701 835.487 318.194C835.487 318.194 831.263 315.345 828.985 318.135C826.564 320.719 832.92 323.611 838.577 325.924Z" fill="#FCE2E0"/>
<path d="M1152.16 -123.372C1283.34 -161.848 1302.68 -195.484 1297.18 -223H-46C-46 -223 185.775 -190.572 253.939 -162.188C322.103 -133.804 425.927 -83.513 446.402 2.3252C471.996 109.623 660.549 62.6804 709.266 121.694C757.983 180.708 630.019 164.451 652.497 214.239C673.823 261.477 774.039 273.025 782.078 323.106C787.953 374.192 590.037 402.01 606.703 497.237C620.036 573.418 693.599 595.946 725.801 604.942C781.695 620.557 870.815 627.352 858.322 654.68C845.828 682.009 712.01 678.104 733.557 740C733.557 740 755.416 696.593 848.108 702.855C964.099 710.691 985.932 622.564 858.322 566.529C643.935 472.391 923.092 436.653 982.096 387.918C1041.1 339.183 920.304 333.257 910.46 309.946C904.011 294.673 928.477 280.955 947.507 272.514C1033.91 234.189 1049.2 186.375 1016.66 159.628C984.12 132.88 874.794 157.183 880.923 48.1675C887.053 -60.8484 988.192 -75.2767 1152.16 -123.372Z" fill="url(#paint1_linear_193_96)"/>
<path fill-rule="evenodd" clip-rule="evenodd" d="M729 733.075C729 733.075 310.153 714.704 0 581V734L729 733.075Z" fill="#FCD39B"/>
<path fill-rule="evenodd" clip-rule="evenodd" d="M711 733.075C711 733.075 1129.85 714.704 1440 581V734L711 733.075Z" fill="#FCD39B"/>
<rect y="730" width="1440" height="120" fill="#FEE0B6"/>
<ellipse cx="1091.5" cy="775" rx="308.5" ry="12" fill="#FCD39B"/>
<path d="M922.461 528C922.461 528 918.138 525.161 917.788 523.151C917.437 521.14 919.307 520.194 921.293 522.559C921.293 522.559 922.461 519.484 924.798 520.076C927.135 520.667 924.681 524.688 922.461 528Z" fill="#FCE2E0"/>
<path fill-rule="evenodd" clip-rule="evenodd" d="M1302 133H1367C1367 133 1361.64 124.447 1354 124.447C1346.37 124.447 1344.65 115 1334.5 115C1324.35 115 1322.14 125.881 1314.97 125.881C1307.8 125.881 1302 133 1302 133Z" fill="white"/>
<path fill-rule="evenodd" clip-rule="evenodd" d="M18 277H76C76 277 71.2133 269.397 64.404 269.397C57.5948 269.397 56.0578 261 47 261C37.9422 261 35.9685 270.672 29.574 270.672C23.1795 270.672 18 277 18 277Z" fill="white"/>
<path fill-rule="evenodd" clip-rule="evenodd" d="M102 148H200C200 148 191.912 135.17 180.407 135.17C168.902 135.17 166.305 121 151 121C135.695 121 132.361 137.321 121.556 137.321C110.752 137.321 102 148 102 148Z" fill="white"/>
<path d="M1283 850H1478.59C1478.59 850 1503.02 827.73 1488.26 818.788C1473.5 809.845 1448.89 834.394 1448.89 834.394C1448.89 834.394 1479.47 771.969 1443.8 766.358C1408.12 760.747 1361.03 822.996 1361.03 822.996C1361.03 822.996 1380.01 787.224 1352.94 786.348C1325.88 785.471 1283 850 1283 850Z" fill="#72A142"/>
<path d="M1353 849C1353 849 1366.64 826.997 1398 807" stroke="#7A7498" stroke-width="2" stroke-miterlimit="10" stroke-linecap="round"/>
<path fill-rule="evenodd" clip-rule="evenodd" d="M73 542H143C143 542 137.223 532.972 129.005 532.972C120.787 532.972 118.932 523 108 523C97.0681 523 94.6862 534.485 86.9686 534.485C79.2511 534.485 73 542 73 542Z" fill="white"/>
<path d="M113.909 778.745C113.909 778.745 100.81 774.347 99.4078 780.287C97.9994 786.064 103.37 787.41 107.534 785.123C111.613 782.758 113.228 780.161 113.909 778.745Z" fill="#72A142"/>
<path d="M107.988 769.655C107.929 770.23 107.458 770.739 106.889 770.842C104.138 771.603 95.6813 772.911 90.5897 764.116C86.8166 757.64 83.1349 751.406 80.8567 747.57C79.8906 745.891 81.3685 743.954 83.1849 744.374C92.1816 746.396 110.598 752.878 107.988 769.655Z" fill="#72A142"/>
<path d="M128.327 806.228C128.327 806.228 118.889 776.428 88.4932 750.382" stroke="#7A7498" stroke-width="2" stroke-miterlimit="10" stroke-linecap="round"/>
<path d="M204.846 849.887H-3.94819C-17.6398 817.706 -27.7492 756.736 -3.94819 754.594C15.0926 752.88 38.5844 777.208 47.9502 789.587C44.1415 779.351 41.023 759.164 59.0195 760.307C77.016 761.449 103.809 802.192 114.955 822.421C114.018 812.389 117.88 792.718 140.832 794.293C163.784 795.868 193.072 832.012 204.846 849.887Z" fill="#72A142"/>
<path d="M186.5 850.032C186.5 850.032 158.462 832.822 161.515 820.239C164.569 807.656 182.796 824.403 182.796 824.403C182.796 824.403 160.868 777.216 183.073 776.661C205.372 776.106 199.08 850.032 199.08 850.032H186.5Z" fill="#679835"/>
<path d="M184.115 792.102C184.115 792.102 193 834.134 193 849" stroke="#7A7498" stroke-width="2" stroke-miterlimit="10" stroke-linecap="round"/>
<path d="M65.4919 774.376C73.7616 787.157 93.9097 819.935 108.344 848.805" stroke="#7A7498" stroke-width="2" stroke-miterlimit="10" stroke-linecap="round"/>
<path fill-rule="evenodd" clip-rule="evenodd" d="M1115 514H1246C1246 514 1235.19 496.894 1219.81 496.894C1204.43 496.894 1200.96 478 1180.5 478C1160.04 478 1155.58 499.761 1141.14 499.761C1126.7 499.761 1115 514 1115 514Z" fill="white"/>
<path fill-rule="evenodd" clip-rule="evenodd" d="M1132 233H1240C1240 233 1231.09 218.745 1218.41 218.745C1205.73 218.745 1202.87 203 1186 203C1169.13 203 1165.46 221.134 1153.55 221.134C1141.64 221.134 1132 233 1132 233Z" fill="white"/>
</g>
<path d="M880.431 733.681L880.396 725.436L847.775 725.492L847.178 733.781L880.431 733.681Z" fill="#FFB494"/>
<path d="M878.554 772.896L877.964 777.382L816.933 777.562C817.118 776.031 817.469 774.526 817.978 773.075C819.829 767.783 823.672 763.433 828.336 761.606C829.712 761.068 831.036 760.401 832.291 759.614C845.019 751.659 847.178 733.78 847.178 733.78L880.431 733.681L878.554 772.896Z" fill="#3A395B"/>
<path d="M878.588 772.62L877.998 777.106L816.968 777.286C817.153 775.755 817.503 774.25 818.013 772.799L878.588 772.62Z" fill="#3A395B"/>
<path d="M853.734 737.203C851.131 745.854 843.379 767.264 832.29 759.618C845.018 751.663 847.177 733.784 847.177 733.784C847.177 733.784 848.825 728.748 851.936 730.623C852.468 730.972 852.922 731.433 853.268 731.974C853.613 732.516 853.842 733.126 853.939 733.765C854.147 734.911 854.076 736.091 853.734 737.203Z" fill="white"/>
<path d="M843.313 761.654C843.378 761.651 843.442 761.631 843.498 761.597C843.554 761.564 843.601 761.516 843.636 761.46C843.702 761.372 843.735 761.263 843.73 761.153C843.725 761.042 843.683 760.937 843.609 760.855C841.415 758.897 835.935 756.849 835.702 756.764C835.6 756.74 835.493 756.757 835.403 756.812C835.313 756.867 835.247 756.955 835.22 757.059C835.175 757.154 835.168 757.264 835.201 757.365C835.233 757.466 835.304 757.55 835.396 757.598C835.453 757.619 841.009 759.695 843.122 761.58C843.174 761.628 843.243 761.655 843.313 761.654Z" fill="#3A395B"/>
<path d="M850.858 753.439C850.928 753.434 850.996 753.412 851.055 753.373C851.115 753.334 851.163 753.281 851.197 753.218C851.258 753.128 851.286 753.018 851.274 752.909C851.263 752.8 851.213 752.699 851.134 752.624C848.119 750.355 840.999 750.788 840.697 750.806C840.589 750.825 840.491 750.881 840.419 750.964C840.347 751.048 840.305 751.154 840.301 751.265C840.291 751.315 840.292 751.366 840.304 751.416C840.316 751.465 840.338 751.511 840.369 751.55C840.401 751.59 840.44 751.622 840.485 751.644C840.53 751.665 840.579 751.677 840.629 751.677C840.7 751.672 847.839 751.239 850.687 753.381C850.736 753.419 850.796 753.439 850.858 753.439Z" fill="#3A395B"/>
<path d="M844.407 744.276C844.433 744.276 844.459 744.272 844.485 744.266C844.538 744.253 849.883 742.906 853.856 743.53C853.962 743.534 854.067 743.497 854.149 743.428C854.231 743.358 854.286 743.261 854.304 743.153C854.321 743.105 854.328 743.053 854.324 743.001C854.321 742.95 854.307 742.899 854.283 742.853C854.259 742.807 854.227 742.767 854.187 742.735C854.147 742.703 854.101 742.679 854.052 742.666C849.957 742.022 844.66 743.357 844.436 743.414C844.331 743.45 844.241 743.52 844.18 743.614C844.119 743.708 844.09 743.82 844.098 743.932C844.095 744.02 844.125 744.105 844.183 744.169C844.241 744.233 844.322 744.272 844.407 744.276Z" fill="#3A395B"/>
<path d="M856.256 735.504C856.344 735.496 856.428 735.461 856.497 735.404C856.566 735.347 856.616 735.27 856.641 735.184C856.664 735.136 856.677 735.084 856.68 735.031C856.683 734.978 856.676 734.925 856.659 734.875C856.642 734.825 856.615 734.778 856.58 734.739C856.545 734.699 856.503 734.667 856.456 734.644C854.571 733.99 847.303 734.63 846.994 734.658C846.887 734.678 846.79 734.736 846.719 734.821C846.648 734.906 846.608 735.013 846.606 735.124C846.597 735.174 846.599 735.225 846.612 735.274C846.625 735.323 846.648 735.368 846.68 735.406C846.712 735.445 846.753 735.476 846.798 735.497C846.843 735.517 846.892 735.528 846.941 735.527C847.015 735.52 854.392 734.87 856.162 735.484C856.192 735.496 856.224 735.502 856.256 735.504Z" fill="#3A395B"/>
<path d="M847.849 735.387C847.916 735.387 847.96 735.387 847.977 735.387L848.549 735.375L848.373 734.756C848.144 733.963 846.051 727.001 843.319 726.963C842.448 726.94 841.645 727.605 840.914 728.91C840.562 729.42 840.328 730.004 840.23 730.62C840.132 731.235 840.172 731.865 840.348 732.462C841.427 735.283 846.912 735.389 847.849 735.387ZM843.178 727.833H843.196C844.959 727.858 846.73 732.197 847.479 734.511C845.507 734.453 841.751 733.947 841.009 732.006C840.884 731.549 840.863 731.07 840.947 730.604C841.03 730.139 841.217 729.698 841.492 729.317C842.054 728.32 842.606 727.834 843.183 727.832L843.178 727.833Z" fill="#3A395B"/>
<path d="M843.788 740.974C843.831 740.974 843.877 740.974 843.918 740.967C845.851 740.76 848.165 735.819 848.423 735.257L848.716 734.615L848.141 734.658C847.686 734.691 843.662 735.043 842.483 737.207C842.281 737.593 842.17 738.021 842.159 738.458C842.148 738.895 842.237 739.329 842.42 739.725C842.755 740.557 843.215 740.975 843.788 740.974ZM847.479 735.593C846.523 737.503 844.963 739.991 843.96 740.098C843.832 740.112 843.44 740.154 843.085 739.263C842.956 739.007 842.888 738.723 842.886 738.435C842.884 738.147 842.949 737.863 843.074 737.605C843.759 736.355 846.112 735.784 847.483 735.593H847.479Z" fill="#3A395B"/>
<path d="M847.497 748.781C847.556 748.778 847.613 748.762 847.665 748.734C847.716 748.706 847.761 748.667 847.796 748.619C847.98 748.386 852.27 742.864 849.948 739.446C848.003 736.581 848.436 735.238 848.44 735.224C848.484 735.129 848.491 735.021 848.459 734.92C848.428 734.82 848.36 734.736 848.27 734.685C848.174 734.656 848.07 734.667 847.981 734.715C847.892 734.764 847.825 734.845 847.794 734.943C847.72 735.123 847.129 736.769 849.358 740.052C851.305 742.921 847.344 748.019 847.304 748.07C847.232 748.155 847.191 748.261 847.187 748.373C847.183 748.484 847.217 748.593 847.282 748.683C847.309 748.714 847.342 748.739 847.379 748.755C847.417 748.772 847.457 748.781 847.497 748.781Z" fill="#3A395B"/>
<path d="M847.776 725.492L880.405 727.527L880.396 725.436L847.776 725.492Z" fill="#3A395B"/>
<path d="M921.266 733.681L921.301 725.436L953.922 725.492L954.519 733.781L921.266 733.681Z" fill="#FFB494"/>
<path d="M923.143 772.896L923.732 777.382L984.763 777.562C984.578 776.031 984.228 774.526 983.718 773.075C981.867 767.783 978.025 763.433 973.361 761.606C971.985 761.068 970.661 760.401 969.405 759.614C956.677 751.659 954.519 733.78 954.519 733.78L921.266 733.681L923.143 772.896Z" fill="#3A395B"/>
<path d="M923.109 772.62L923.698 777.106L984.729 777.286C984.544 775.755 984.193 774.25 983.684 772.799L923.109 772.62Z" fill="#3A395B"/>
<path d="M947.962 737.203C950.565 745.854 958.317 767.264 969.406 759.618C956.678 751.663 954.519 733.784 954.519 733.784C954.519 733.784 952.871 728.748 949.76 730.623C949.228 730.972 948.774 731.433 948.428 731.974C948.083 732.516 947.854 733.126 947.757 733.765C947.549 734.911 947.62 736.091 947.962 737.203Z" fill="white"/>
<path d="M950.843 753.439C950.773 753.434 950.705 753.411 950.645 753.373C950.586 753.334 950.537 753.281 950.504 753.218C950.443 753.127 950.415 753.018 950.427 752.909C950.438 752.8 950.488 752.699 950.566 752.624C953.581 750.355 960.702 750.788 961.004 750.806C961.111 750.825 961.209 750.881 961.282 750.964C961.354 751.048 961.395 751.154 961.4 751.265C961.41 751.315 961.409 751.366 961.397 751.416C961.386 751.465 961.363 751.511 961.332 751.551C961.3 751.59 961.261 751.622 961.216 751.644C961.171 751.666 961.122 751.677 961.072 751.677C961 751.672 953.862 751.239 951.014 753.381C950.965 753.419 950.905 753.439 950.843 753.439Z" fill="#3A395B"/>
<path d="M957.295 744.276C957.269 744.276 957.243 744.272 957.218 744.266C957.165 744.253 951.82 742.906 947.847 743.53C947.74 743.534 947.636 743.497 947.553 743.428C947.471 743.358 947.416 743.261 947.399 743.153C947.382 743.105 947.375 743.053 947.378 743.001C947.382 742.95 947.396 742.899 947.419 742.853C947.443 742.807 947.476 742.767 947.515 742.735C947.555 742.703 947.601 742.679 947.65 742.666C951.746 742.022 957.042 743.357 957.266 743.414C957.371 743.45 957.461 743.52 957.522 743.614C957.584 743.708 957.613 743.82 957.605 743.932C957.608 744.02 957.577 744.105 957.519 744.169C957.461 744.233 957.381 744.272 957.295 744.276Z" fill="#3A395B"/>
<path d="M945.445 735.504C945.356 735.496 945.272 735.461 945.204 735.404C945.135 735.347 945.085 735.27 945.06 735.184C945.037 735.136 945.024 735.084 945.021 735.031C945.018 734.978 945.025 734.925 945.042 734.875C945.059 734.825 945.086 734.778 945.121 734.739C945.156 734.699 945.198 734.667 945.245 734.644C947.13 733.99 954.398 734.63 954.707 734.658C954.814 734.678 954.911 734.736 954.982 734.821C955.053 734.906 955.093 735.013 955.095 735.124C955.104 735.174 955.102 735.225 955.089 735.274C955.076 735.323 955.053 735.368 955.021 735.406C954.988 735.445 954.948 735.476 954.903 735.497C954.858 735.517 954.809 735.528 954.76 735.527C954.686 735.52 947.309 734.87 945.539 735.484C945.509 735.496 945.477 735.502 945.445 735.504Z" fill="#3A395B"/>
<path d="M961.352 732.459C961.528 731.862 961.568 731.231 961.47 730.616C961.372 730.001 961.137 729.416 960.785 728.907C960.055 727.602 959.251 726.936 958.38 726.959C955.648 726.998 953.555 733.96 953.326 734.753L953.15 735.371L953.722 735.383C953.74 735.383 953.784 735.383 953.85 735.383C954.784 735.388 960.269 735.281 961.352 732.459ZM960.2 729.311C960.475 729.693 960.661 730.133 960.745 730.599C960.828 731.065 960.807 731.544 960.683 732C959.938 733.942 956.188 734.448 954.212 734.505C954.961 732.192 956.729 727.851 958.495 727.828H958.513C959.09 727.832 959.642 728.318 960.2 729.314V729.311Z" fill="#3A395B"/>
<path d="M959.272 739.73C959.455 739.334 959.544 738.9 959.533 738.463C959.522 738.026 959.411 737.597 959.209 737.212C958.03 735.048 954.009 734.694 953.551 734.662L952.976 734.62L953.269 735.261C953.527 735.824 955.841 740.765 957.775 740.972C957.818 740.972 957.863 740.978 957.904 740.979C958.482 740.976 958.942 740.558 959.272 739.73ZM958.618 737.606C958.743 737.864 958.808 738.148 958.806 738.436C958.804 738.724 958.736 739.008 958.608 739.264C958.255 740.155 957.86 740.114 957.732 740.099C956.729 739.992 955.169 737.504 954.213 735.594C955.584 735.785 957.937 736.357 958.618 737.606Z" fill="#3A395B"/>
<path d="M954.2 748.781C954.141 748.778 954.084 748.762 954.032 748.734C953.981 748.706 953.936 748.667 953.901 748.619C953.718 748.386 949.427 742.864 951.749 739.446C953.694 736.581 953.261 735.238 953.257 735.224C953.213 735.129 953.206 735.021 953.238 734.92C953.269 734.82 953.337 734.736 953.427 734.685C953.523 734.656 953.627 734.667 953.716 734.715C953.805 734.764 953.872 734.845 953.903 734.943C953.978 735.123 954.569 736.769 952.339 740.052C950.392 742.921 954.353 748.019 954.393 748.07C954.465 748.154 954.506 748.261 954.51 748.373C954.514 748.484 954.48 748.593 954.415 748.683C954.388 748.714 954.355 748.739 954.318 748.756C954.281 748.773 954.24 748.781 954.2 748.781Z" fill="#3A395B"/>
<path d="M953.925 725.492L921.296 727.527L921.304 725.436L953.925 725.492Z" fill="#3A395B"/>
<path d="M955.114 473.07H858.049L845.695 725.673H882.168L901.385 523.989L920.21 725.673H955.31L955.114 473.07Z" fill="#3A5793"/>
<path d="M857.258 400.874L857.266 400.864L855.297 477.426L892.737 479.499L907.198 480.301L954.158 482.903L953.735 421.698L993.181 409.895C993.181 409.895 985.876 385.566 974.578 370.402C970.396 364.844 964.736 360.63 958.273 358.262C946.694 353.972 934.788 350.664 922.676 348.371C918.146 347.509 913.422 346.773 908.502 346.163C900.259 345.152 891.966 344.611 883.664 344.544C876.525 344.552 868.018 344.904 861.901 345.444C861.705 345.458 861.508 345.477 861.316 345.496C856.038 345.987 850.932 347.665 846.366 350.41C843.428 352.183 840.435 354.071 837.386 356.075C828.295 362.043 816.917 370.272 807.753 379.32L825.654 421.675C825.654 421.675 851.569 408.206 857.258 400.874Z" fill="white"/>
<path d="M904.853 359.485C905.107 359.437 905.362 359.382 905.605 359.317C907.039 358.958 908.385 358.305 909.563 357.398C910.741 356.491 911.726 355.348 912.458 354.04C913.585 352.05 914.092 349.756 913.909 347.465L912.852 333.85H893.53L893.354 335.402L892.024 347.022C891.812 348.766 892.004 350.536 892.584 352.19C893.164 353.845 894.115 355.338 895.362 356.55C896.61 357.761 898.118 358.658 899.766 359.168C901.414 359.678 903.156 359.786 904.853 359.485Z" fill="#FFB494"/>
<path d="M893.353 335.402V335.407C893.353 335.407 901.164 347.573 911.27 339.581C912.31 344.323 912.71 349.188 912.458 354.04C913.585 352.05 914.092 349.756 913.909 347.465L912.852 333.85H893.53L893.353 335.402Z" fill="#3A395B"/>
<path d="M920.105 311.721C919.061 322.18 915.522 338.129 903.676 340.063C902.679 340.224 901.661 340.181 900.68 339.937C896.526 338.909 886.507 334.002 885.453 310.596C885.283 307.103 886.012 303.625 887.567 300.508C889.122 297.391 891.449 294.743 894.317 292.828C898.724 289.893 904.531 288.469 911.151 292.828C914.209 294.824 916.666 297.647 918.246 300.983C919.827 304.318 920.47 308.035 920.105 311.721Z" fill="#FFB494"/>
<path d="M901.948 326.45C902.171 326.446 902.392 326.408 902.604 326.337C902.709 326.304 902.797 326.229 902.848 326.13C902.9 326.03 902.91 325.914 902.877 325.806C902.844 325.699 902.771 325.609 902.673 325.557C902.576 325.505 902.462 325.495 902.357 325.528C901.812 325.703 901.651 325.528 901.599 325.467C900.764 324.549 902.033 319.915 903.201 316.917C903.223 316.865 903.235 316.809 903.236 316.752C903.236 316.695 903.226 316.639 903.205 316.587C903.183 316.534 903.152 316.486 903.113 316.447C903.073 316.407 903.026 316.375 902.974 316.354C902.923 316.333 902.868 316.323 902.812 316.325C902.756 316.326 902.702 316.339 902.651 316.362C902.6 316.385 902.555 316.419 902.517 316.461C902.479 316.502 902.45 316.551 902.431 316.605C901.929 317.893 899.501 324.402 900.991 326.042C901.113 326.175 901.262 326.281 901.427 326.351C901.592 326.422 901.77 326.455 901.948 326.45Z" fill="#3A395B"/>
<path d="M908.187 323.306C908.113 322.168 909.676 321.136 911.679 321C913.682 320.864 915.366 321.675 915.44 322.813C915.514 323.95 913.951 324.982 911.948 325.118C909.945 325.255 908.261 324.443 908.187 323.306Z" fill="#FC6D6D"/>
<path d="M914.765 313.054C914.148 312.742 913.502 312.493 912.836 312.313C912.155 312.124 911.455 312.014 910.749 311.986C910.015 311.966 909.283 312.07 908.581 312.293C907.887 312.53 907.243 312.899 906.685 313.382C906.621 313.431 906.567 313.494 906.529 313.566C906.491 313.638 906.469 313.717 906.464 313.799C906.459 313.88 906.471 313.962 906.501 314.038C906.53 314.115 906.575 314.183 906.633 314.24C906.759 314.361 906.923 314.433 907.096 314.441C907.269 314.45 907.44 314.396 907.577 314.288L907.6 314.267L907.648 314.224C908.047 313.831 908.516 313.52 909.029 313.307C909.58 313.095 910.162 312.976 910.75 312.956C911.37 312.946 911.988 313.006 912.595 313.136C913.205 313.262 913.801 313.448 914.375 313.691L914.396 313.7C914.489 313.743 914.595 313.749 914.694 313.718C914.792 313.687 914.875 313.62 914.929 313.53C914.95 313.489 914.963 313.443 914.966 313.395C914.97 313.348 914.964 313.301 914.948 313.256C914.933 313.211 914.909 313.17 914.877 313.135C914.846 313.101 914.807 313.073 914.765 313.054Z" fill="#3A395B"/>
<path d="M910.034 319.415C909.479 319.369 909.084 318.634 909.153 317.773C909.221 316.912 909.726 316.252 910.281 316.297C910.836 316.343 911.231 317.078 911.163 317.939C911.094 318.8 910.589 319.461 910.034 319.415Z" fill="#3A395B"/>
<path d="M894.035 325.127C892.032 324.991 890.468 323.959 890.543 322.822C890.617 321.684 892.301 320.873 894.304 321.009C896.306 321.145 897.87 322.177 897.796 323.315C897.721 324.452 896.038 325.263 894.035 325.127Z" fill="#FC6D6D"/>
<path d="M891.205 313.054C891.822 312.742 892.468 312.493 893.134 312.313C893.815 312.124 894.515 312.014 895.22 311.986C895.955 311.966 896.687 312.07 897.388 312.293C898.083 312.529 898.727 312.899 899.285 313.382C899.349 313.431 899.403 313.493 899.441 313.565C899.479 313.637 899.502 313.717 899.507 313.799C899.511 313.88 899.499 313.962 899.47 314.039C899.44 314.115 899.395 314.184 899.337 314.24C899.211 314.361 899.047 314.433 898.874 314.441C898.701 314.45 898.531 314.396 898.394 314.288L898.369 314.267L898.323 314.224C897.923 313.832 897.455 313.52 896.942 313.307C896.39 313.095 895.808 312.976 895.22 312.956C894.6 312.946 893.981 313.006 893.375 313.136C892.766 313.262 892.17 313.448 891.595 313.692L891.574 313.7C891.481 313.742 891.376 313.748 891.279 313.717C891.182 313.685 891.099 313.619 891.046 313.531C891.024 313.489 891.011 313.443 891.007 313.396C891.003 313.349 891.009 313.302 891.024 313.257C891.039 313.212 891.063 313.171 891.094 313.136C891.125 313.101 891.163 313.073 891.205 313.054Z" fill="#3A395B"/>
<path d="M894.826 317.925C894.757 317.065 895.152 316.329 895.707 316.284C896.262 316.238 896.767 316.898 896.836 317.759C896.904 318.62 896.51 319.355 895.955 319.401C895.399 319.447 894.894 318.786 894.826 317.925Z" fill="#3A395B"/>
<path d="M886.437 312.007C885.745 312.007 885.061 312.166 884.437 312.472C883.812 312.778 883.263 313.223 882.83 313.774C882.397 314.326 882.091 314.97 881.934 315.658C881.777 316.346 881.774 317.062 881.925 317.752L882.747 321.511C882.977 322.557 883.549 323.492 884.369 324.163C885.189 324.833 886.209 325.198 887.26 325.198H888.442C888.442 325.198 890.481 315.97 886.437 312.007Z" fill="#FFB494"/>
<path d="M919.452 312.007C920.144 312.007 920.828 312.166 921.452 312.472C922.076 312.778 922.625 313.223 923.059 313.775C923.492 314.326 923.798 314.97 923.954 315.658C924.111 316.347 924.114 317.062 923.963 317.752L923.142 321.511C922.912 322.557 922.34 323.492 921.52 324.163C920.7 324.833 919.68 325.198 918.629 325.198H917.448C917.448 325.198 915.408 315.97 919.452 312.007Z" fill="#FFB494"/>
<path d="M885.537 312.099L886.883 319.742C888.437 315.668 889.273 311.345 889.351 306.973C889.351 306.973 938.067 315.412 927.846 290.076C917.626 264.74 886.399 294.285 886.399 294.285C886.399 294.285 880.13 291.952 885.537 312.099Z" fill="#3A395B"/>
<path d="M920.842 306.32L918.877 319.739C917.348 315.629 916.548 311.275 916.516 306.879C916.689 300.447 920.842 306.32 920.842 306.32Z" fill="#3A395B"/>
<path d="M885.043 322.267L885.724 321.785C883.742 318.88 883.713 317.357 884.038 316.592C884.172 316.314 884.37 316.073 884.614 315.888C884.858 315.704 885.142 315.581 885.442 315.531L885.328 314.694C884.89 314.766 884.475 314.944 884.119 315.214C883.763 315.484 883.476 315.838 883.283 316.245C882.681 317.645 883.272 319.672 885.043 322.267Z" fill="#3A395B"/>
<path d="M920.84 322.268C922.611 319.672 923.204 317.645 922.603 316.243C922.409 315.835 922.122 315.482 921.766 315.212C921.41 314.942 920.996 314.764 920.558 314.692L920.444 315.529C920.744 315.579 921.028 315.702 921.272 315.886C921.516 316.071 921.713 316.312 921.848 316.59C922.173 317.355 922.144 318.877 920.162 321.783L920.84 322.268Z" fill="#3A395B"/>
<path d="M907.197 480.302C922.996 485.257 939.727 486.287 955.996 483.305C955.299 471.075 954.603 458.847 953.906 446.622V445.952L953.75 423.537V422.859L953.74 421.699L969.383 417.016L970.061 416.814L992.653 410.054L993.181 409.897C993.181 409.897 993.047 409.447 992.79 408.638C992.469 407.649 991.962 406.11 991.282 404.181C991.203 403.956 991.119 403.724 991.035 403.486C988.192 395.413 984.736 387.579 980.698 380.055C980.57 379.819 980.434 379.582 980.304 379.346C978.587 376.242 976.673 373.254 974.576 370.402C974.545 370.366 974.518 370.324 974.488 370.287C974.296 370.031 974.103 369.78 973.903 369.529C969.786 364.4 964.383 360.506 958.27 358.263C956.634 357.658 954.941 357.054 953.19 356.451C952.979 356.378 952.767 356.304 952.552 356.231C949.562 355.217 946.408 354.224 943.09 353.252C941.868 352.899 940.627 352.552 939.37 352.209C936.731 351.495 933.999 350.809 931.173 350.153C930.956 350.103 930.744 350.057 930.526 350.005C927.978 349.425 925.358 348.879 922.668 348.369L921.139 350.4L920.664 351.03L906.715 369.56L905.958 370.563L905.919 370.613C905.919 370.613 905.919 370.77 905.906 371.069V371.1C905.87 372.296 905.774 375.636 905.666 380.524C905.578 384.452 905.49 389.383 905.402 394.993C905.402 395.213 905.402 395.442 905.395 395.664C905.307 402.361 905.236 409.998 905.231 418.049V418.723C905.231 426.001 905.278 433.6 905.414 441.144C905.414 441.369 905.414 441.594 905.425 441.817C905.565 449.514 905.789 457.141 906.135 464.287C906.143 464.515 906.156 464.744 906.164 464.968C906.438 470.431 906.776 475.603 907.197 480.302Z" fill="#5BA39B"/>
<path d="M807.752 379.324L810.392 385.569L810.689 386.272L813.4 392.684L813.934 393.957L820.569 409.655L820.866 410.356L825.654 421.68C825.654 421.68 829.056 419.91 833.667 417.307C833.894 417.177 834.126 417.046 834.362 416.914C836.704 415.581 839.323 414.053 841.942 412.444C842.254 412.255 842.558 412.06 842.876 411.865C848.957 408.088 854.879 403.944 857.26 400.875L857.268 400.865L857.054 409.215L856.809 418.657L856.356 436.283L856.341 436.955L855.766 459.299L855.747 459.972L855.298 477.435C859.052 479.322 862.974 480.838 867.011 481.963C875.384 484.271 884.117 484.895 892.724 483.801C892.804 480.219 892.929 475.433 893.101 471.73C893.137 470.957 893.314 467.643 893.488 463.713C893.498 463.492 893.507 463.263 893.522 463.043C893.874 455.71 894.26 448.19 894.645 440.755C894.659 440.533 894.668 440.305 894.678 440.085C895.077 432.464 895.471 424.936 895.864 417.802C895.873 417.577 895.887 417.353 895.897 417.132C896.338 409.048 896.751 401.478 897.118 394.85C897.132 394.627 897.146 394.406 897.156 394.184C897.735 383.843 898.189 375.868 898.421 371.905C898.433 371.666 898.448 371.444 898.459 371.235C898.536 369.873 898.58 369.138 898.58 369.138L886.105 348.576L885.529 347.632L885.48 347.549L885.044 346.829L883.663 344.552C878.432 344.558 872.464 344.746 867.242 345.064C865.806 345.154 864.428 345.244 863.136 345.353C862.713 345.386 862.302 345.421 861.903 345.456C861.706 345.47 861.51 345.489 861.317 345.508C856.039 345.999 850.934 347.677 846.368 350.423C844.385 351.618 842.377 352.867 840.345 354.17C840.111 354.319 839.872 354.469 839.639 354.619C838.892 355.099 838.142 355.586 837.388 356.081C833.831 358.419 829.92 361.099 825.931 364.04C825.666 364.234 825.402 364.432 825.137 364.63C822.105 366.886 819.035 369.291 816.048 371.802C815.808 372.002 815.566 372.206 815.329 372.41C812.705 374.638 810.155 376.953 807.752 379.324Z" fill="#5BA39B"/>
<path d="M992.79 408.638C993.047 409.447 993.181 409.897 993.181 409.897L992.653 410.054L992.79 408.638ZM906.168 464.967C906.16 464.743 906.146 464.517 906.138 464.286L919.518 465.613L921.633 443.421L905.431 441.816C905.423 441.592 905.418 441.367 905.419 441.144L921.698 442.762L923.813 420.57L905.234 418.727V418.052L923.872 419.901L925.987 397.709L905.397 395.667C905.397 395.441 905.403 395.218 905.403 394.996L926.048 397.046L928.163 374.854L906.413 372.696L905.665 380.529C905.774 375.642 905.87 372.302 905.905 371.106V371.074L905.957 370.569L906.714 369.565L906.477 372.031L928.222 374.189L930.337 351.997L920.661 351.037L921.136 350.408L930.396 351.328L930.523 350.013C930.741 350.064 930.953 350.11 931.17 350.16L931.052 351.394L939.363 352.216C940.623 352.561 941.863 352.908 943.083 353.259L930.996 352.051L928.881 374.243L950.629 376.401L952.552 356.23C952.767 356.303 952.978 356.377 953.19 356.451L951.285 376.467L973.034 378.625L973.902 369.53C974.103 369.781 974.295 370.032 974.487 370.288L973.685 378.691L980.302 379.347C980.434 379.583 980.566 379.82 980.696 380.056L973.625 379.355L971.51 401.547L991.035 403.487C991.123 403.725 991.203 403.957 991.282 404.182L971.445 402.216L970.056 416.814L969.378 417.016L970.794 402.15L949.046 399.992L946.93 422.184L953.742 422.857V423.535L946.863 422.852L944.747 445.044L953.896 445.95V446.62L944.68 445.708L942.565 467.899L954.051 469.039V469.713L942.499 468.568L941.203 482.184L940.543 482.151L941.843 468.503L920.095 466.344L918.704 480.939L918.047 480.901L919.438 466.28L906.168 464.967ZM970.857 401.484L972.972 379.293L951.222 377.134L949.106 399.325L970.857 401.484ZM950.565 377.071L928.816 374.913L926.701 397.104L948.45 399.262L950.565 377.071ZM948.387 399.927L926.639 397.769L924.524 419.96L946.272 422.118L948.387 399.927ZM946.21 422.787L924.462 420.629L922.347 442.82L944.096 444.978L946.21 422.787ZM941.92 467.834L944.035 445.643L922.287 443.485L920.172 465.677L941.92 467.834ZM810.387 385.569L814.034 385.928L815.322 372.408C815.56 372.204 815.801 372 816.042 371.8L814.69 385.994L836.438 388.152L838.553 365.96L825.133 364.629C825.398 364.431 825.662 364.234 825.926 364.039L838.618 365.298L839.634 354.621C839.867 354.468 840.106 354.317 840.339 354.172L839.272 365.368L861.021 367.526L863.136 345.357C864.428 345.248 865.806 345.154 867.241 345.068L885.044 346.833L885.479 347.552L863.788 345.403L861.673 367.594L883.422 369.752L885.526 347.638L886.102 348.581L884.075 369.818L898.453 371.241C898.442 371.449 898.428 371.671 898.415 371.911L884.01 370.482L881.895 392.674L897.148 394.19C897.138 394.412 897.124 394.633 897.11 394.855L881.831 393.342L879.716 415.534L895.888 417.138C895.878 417.36 895.864 417.582 895.854 417.808L879.651 416.198L877.536 438.389L894.666 440.091C894.657 440.312 894.647 440.54 894.633 440.76L877.472 439.058L875.356 461.249L893.512 463.048C893.497 463.27 893.488 463.497 893.478 463.718L875.297 461.919L873.245 483.294L872.588 483.26L874.641 461.858L855.736 459.983L855.756 459.31L874.704 461.19L876.819 438.998L856.332 436.966L856.348 436.294L876.883 438.333L878.998 416.142L857.249 413.984L856.801 418.675L857.047 409.232L858.776 391.058L837.027 388.9L834.912 411.092L842.866 411.881C842.554 412.075 842.25 412.27 841.932 412.46L834.847 411.757L834.353 416.929C834.118 417.061 833.886 417.192 833.657 417.322L834.192 411.696L820.856 410.372L820.56 409.67L834.257 411.027L836.372 388.835L814.624 386.676L813.927 393.969L813.393 392.697L813.972 386.611L810.682 386.284L810.387 385.569ZM883.361 370.402L861.611 368.243L859.496 390.434L881.245 392.593L883.361 370.402ZM857.322 413.296L879.07 415.454L881.186 393.263L859.437 391.105L857.322 413.296ZM858.847 390.365L860.963 368.174L839.213 366.016L837.098 388.208L858.847 390.365Z" fill="white"/>
<path d="M807.75 379.322L760.687 305.155L742.384 316.019L783.321 418.021C784.354 420.593 785.916 422.909 787.903 424.811C789.89 426.713 792.254 428.157 794.835 429.045C797.417 429.933 800.155 430.244 802.865 429.957C805.575 429.67 808.193 428.791 810.54 427.381L824.513 418.989L807.75 379.322Z" fill="#FFB494"/>
<path d="M807.751 379.321L820.965 421.122L824.517 418.99L807.751 379.321Z" fill="#3A395B"/>
<path d="M773.217 326.783C773.217 326.783 763.177 313.412 764.757 281.575C764.77 281.351 764.714 281.128 764.596 280.938C764.479 280.747 764.307 280.599 764.103 280.514C763.899 280.428 763.674 280.41 763.459 280.461C763.245 280.513 763.051 280.631 762.906 280.8C759.56 284.671 756.838 289.06 754.842 293.803C754.8 293.909 754.726 294 754.632 294.063C754.537 294.126 754.426 294.158 754.313 294.154C754.201 294.15 754.092 294.111 754.001 294.042C753.911 293.973 753.844 293.878 753.808 293.769C752.38 289.331 748.209 275.948 746.721 266.557C746.68 266.31 746.556 266.085 746.371 265.921C746.185 265.757 745.95 265.664 745.705 265.657C745.459 265.651 745.219 265.732 745.026 265.886C744.833 266.04 744.698 266.259 744.645 266.503C743.956 269.897 743.609 275.226 745.163 282.677C745.19 282.804 745.171 282.937 745.109 283.05C745.047 283.164 744.946 283.25 744.826 283.294C744.706 283.337 744.575 283.334 744.457 283.285C744.338 283.236 744.242 283.145 744.185 283.029C742.107 278.78 740.344 274.378 738.911 269.86C738.838 269.621 738.687 269.416 738.482 269.279C738.277 269.142 738.032 269.081 737.789 269.108C737.545 269.135 737.318 269.247 737.147 269.425C736.975 269.603 736.87 269.837 736.848 270.086C736.577 275.53 737.444 280.972 739.391 286.048C739.434 286.169 739.433 286.302 739.388 286.422C739.343 286.542 739.257 286.642 739.145 286.702C739.034 286.762 738.905 286.78 738.782 286.751C738.66 286.723 738.551 286.65 738.477 286.546C736.755 284.136 735.238 281.581 733.942 278.907C733.832 278.682 733.648 278.504 733.422 278.402C733.196 278.301 732.943 278.284 732.706 278.353C732.469 278.422 732.263 278.573 732.123 278.781C731.984 278.989 731.921 279.24 731.943 279.49C732.525 284.181 733.997 288.711 736.278 292.827C736.332 292.933 736.35 293.055 736.33 293.173C736.309 293.291 736.25 293.398 736.162 293.479C736.075 293.559 735.964 293.607 735.847 293.615C735.73 293.624 735.613 293.592 735.515 293.526C734.169 292.512 732.943 291.34 731.864 290.035C731.71 289.849 731.499 289.722 731.265 289.675C731.031 289.627 730.788 289.662 730.576 289.772C730.364 289.883 730.194 290.064 730.095 290.285C729.996 290.507 729.974 290.755 730.031 290.992C732.171 299.175 738.196 315.972 754.923 340.67L773.217 326.783Z" fill="#FFB494"/>
<path d="M746.621 311.386C747.208 304.491 753.78 298.41 753.847 298.347L754.307 297.927L753.762 297.63C753.534 297.506 748.069 294.654 739.272 300.232L739.728 300.979C746.472 296.703 751.185 297.643 752.771 298.173C751.166 299.779 746.287 305.132 745.76 311.302L746.621 311.386Z" fill="#3A395B"/>
<path d="M990.845 410.594L998.053 438.256C998.737 440.884 998.855 443.633 998.399 446.312C997.942 448.991 996.922 451.537 995.409 453.775L957.73 509.523C956.966 510.654 955.942 511.578 954.748 512.213C953.554 512.849 952.226 513.177 950.879 513.169C949.532 513.161 948.208 512.817 947.021 512.167C945.834 511.517 944.821 510.581 944.07 509.441C941.95 506.224 940.611 502.538 940.164 498.689C939.717 494.839 940.175 490.936 941.499 487.303L959.683 437.412L953.727 421.697L990.845 410.594Z" fill="#FFB494"/>
<path d="M913.55 343.212L922.672 348.368L912.586 375.018L905.923 370.611L913.55 343.212Z" fill="#5BA39B"/>
<path d="M892.569 341.751L883.67 344.602L890.443 372.222L898.58 369.129L892.569 341.751Z" fill="#5BA39B"/>
<path d="M922.672 348.369L912.586 375.018L905.923 370.612" stroke="#3A395B" stroke-width="0.673976" stroke-miterlimit="10"/>
<path d="M883.67 344.603L890.443 372.222L898.58 369.129" stroke="#3A395B" stroke-width="0.673976" stroke-miterlimit="10"/>
<path d="M953.737 421.698L945.401 390.037" stroke="#3A395B" stroke-width="0.673976" stroke-miterlimit="10"/>
<path d="M857.258 400.875L858.177 372.756" stroke="#3A395B" stroke-width="0.673976" stroke-miterlimit="10"/>
<path d="M901.384 523.99L898.455 495.593" stroke="#3A395B" stroke-width="0.673976" stroke-miterlimit="10"/>
<path d="M955.31 715.015H919.215" stroke="#3A395B" stroke-width="0.673976" stroke-miterlimit="10"/>
<path d="M883.184 715.015H846.217" stroke="#3A395B" stroke-width="0.673976" stroke-miterlimit="10"/>
<path d="M940.007 484.938C940.007 484.938 935.374 516.973 955.314 514.036" stroke="#3A395B" stroke-width="0.673976" stroke-miterlimit="10"/>
<path d="M867.01 481.954C867.01 481.954 870.187 506.528 856.422 506.364" stroke="#3A395B" stroke-width="0.673976" stroke-miterlimit="10"/>
<path d="M906.5 330.099C906.631 330.078 906.766 330.093 906.89 330.142C907.014 330.192 907.122 330.274 907.204 330.381C907.286 330.489 907.338 330.616 907.355 330.751C907.372 330.885 907.354 331.022 907.301 331.147C906.963 331.994 906.401 332.729 905.678 333.27C904.955 333.811 904.099 334.137 903.206 334.212C902.462 334.252 901.719 334.115 901.036 333.811C900.353 333.507 899.749 333.045 899.271 332.461C899.19 332.358 899.137 332.236 899.117 332.105C899.097 331.975 899.11 331.842 899.157 331.718C899.203 331.595 899.281 331.487 899.381 331.404C899.482 331.321 899.602 331.267 899.73 331.246L906.5 330.099Z" fill="white"/>
<path d="M1294.9 731L1294.86 722.25L1260.24 722.309L1259.61 731.106L1294.9 731Z" fill="#FFB494"/>
<path d="M1292.9 772.609L1292.28 777.369L1227.52 777.563C1227.71 775.937 1228.09 774.339 1228.63 772.797C1230.59 767.182 1234.67 762.566 1239.62 760.628C1241.08 760.057 1242.48 759.35 1243.81 758.516C1257.32 750.074 1259.61 731.103 1259.61 731.103L1294.9 730.997L1292.9 772.609Z" fill="#F8B600"/>
<path d="M1292.94 772.561L1292.32 777.321L1227.56 777.515C1227.75 775.889 1228.12 774.291 1228.66 772.748L1292.94 772.561Z" fill="#3A395B"/>
<path d="M1266.57 734.733C1263.81 743.912 1255.58 766.63 1243.81 758.518C1257.32 750.077 1259.61 731.105 1259.61 731.105C1259.61 731.105 1261.36 725.763 1264.66 727.749C1265.22 728.12 1265.71 728.609 1266.07 729.184C1266.44 729.759 1266.68 730.406 1266.78 731.084C1267.01 732.3 1266.93 733.553 1266.57 734.733Z" fill="white"/>
<path d="M1255.51 760.68C1255.58 760.677 1255.65 760.656 1255.7 760.62C1255.76 760.584 1255.81 760.534 1255.85 760.473C1255.92 760.38 1255.96 760.265 1255.95 760.147C1255.95 760.03 1255.9 759.919 1255.82 759.832C1253.49 757.754 1247.68 755.582 1247.43 755.491C1247.32 755.465 1247.21 755.483 1247.11 755.542C1247.02 755.601 1246.95 755.695 1246.92 755.804C1246.87 755.906 1246.86 756.023 1246.9 756.131C1246.94 756.238 1247.01 756.327 1247.11 756.378C1247.17 756.4 1253.06 758.602 1255.31 760.605C1255.36 760.655 1255.43 760.681 1255.51 760.68Z" fill="#3A395B"/>
<path d="M1263.51 751.963C1263.59 751.959 1263.66 751.935 1263.72 751.894C1263.78 751.853 1263.84 751.796 1263.87 751.73C1263.94 751.634 1263.96 751.518 1263.95 751.402C1263.94 751.287 1263.89 751.18 1263.8 751.1C1260.61 748.693 1253.05 749.152 1252.73 749.172C1252.62 749.191 1252.51 749.25 1252.43 749.339C1252.36 749.428 1252.31 749.541 1252.31 749.659C1252.3 749.712 1252.3 749.766 1252.31 749.819C1252.32 749.872 1252.35 749.921 1252.38 749.963C1252.41 750.005 1252.46 750.039 1252.5 750.062C1252.55 750.085 1252.6 750.096 1252.66 750.096C1252.73 750.09 1260.31 749.631 1263.33 751.904C1263.38 751.943 1263.45 751.964 1263.51 751.963Z" fill="#3A395B"/>
<path d="M1256.67 742.239C1256.7 742.239 1256.72 742.235 1256.75 742.228C1256.81 742.214 1262.48 740.789 1266.69 741.448C1266.81 741.452 1266.92 741.413 1267.01 741.34C1267.09 741.266 1267.15 741.162 1267.17 741.047C1267.19 740.996 1267.19 740.941 1267.19 740.886C1267.19 740.832 1267.17 740.778 1267.15 740.73C1267.12 740.681 1267.09 740.638 1267.05 740.604C1267 740.57 1266.96 740.545 1266.9 740.53C1262.56 739.848 1256.94 741.264 1256.7 741.324C1256.59 741.362 1256.49 741.437 1256.43 741.537C1256.36 741.636 1256.33 741.755 1256.34 741.875C1256.34 741.967 1256.37 742.057 1256.43 742.125C1256.49 742.193 1256.58 742.234 1256.67 742.239Z" fill="#3A395B"/>
<path d="M1269.24 732.934C1269.34 732.925 1269.43 732.888 1269.5 732.828C1269.57 732.767 1269.63 732.686 1269.65 732.594C1269.7 732.492 1269.71 732.375 1269.67 732.268C1269.63 732.162 1269.56 732.074 1269.46 732.025C1267.46 731.331 1259.74 732.011 1259.42 732.039C1259.3 732.061 1259.2 732.123 1259.12 732.213C1259.05 732.303 1259.01 732.417 1259 732.536C1258.99 732.588 1259 732.642 1259.01 732.694C1259.02 732.745 1259.05 732.793 1259.08 732.834C1259.11 732.875 1259.16 732.907 1259.2 732.93C1259.25 732.952 1259.3 732.963 1259.36 732.962C1259.43 732.954 1267.26 732.264 1269.14 732.917C1269.17 732.929 1269.21 732.935 1269.24 732.934Z" fill="#3A395B"/>
<path d="M1260.33 732.808H1260.46L1261.07 732.795L1260.88 732.139C1260.64 731.297 1258.41 723.909 1255.52 723.865C1254.59 723.842 1253.74 724.548 1252.96 725.934C1252.59 726.474 1252.34 727.095 1252.24 727.748C1252.13 728.401 1252.18 729.07 1252.36 729.703C1253.51 732.698 1259.33 732.81 1260.33 732.808ZM1255.38 724.792H1255.39C1257.27 724.818 1259.14 729.422 1259.94 731.877C1257.85 731.817 1253.86 731.279 1253.07 729.218C1252.94 728.734 1252.92 728.225 1253.01 727.731C1253.1 727.237 1253.29 726.77 1253.59 726.365C1254.18 725.308 1254.76 724.793 1255.38 724.793V724.792Z" fill="#3A395B"/>
<path d="M1256.02 738.738C1256.06 738.738 1256.11 738.738 1256.16 738.731C1258.21 738.511 1260.66 733.269 1260.94 732.672L1261.25 731.992L1260.64 732.036C1260.16 732.071 1255.89 732.445 1254.64 734.742C1254.42 735.151 1254.3 735.606 1254.29 736.071C1254.28 736.535 1254.37 736.996 1254.57 737.417C1254.92 738.296 1255.41 738.74 1256.02 738.738ZM1259.94 733.028C1258.92 735.055 1257.27 737.696 1256.2 737.809C1256.07 737.824 1255.65 737.868 1255.27 736.922C1255.14 736.65 1255.06 736.35 1255.06 736.044C1255.06 735.739 1255.13 735.437 1255.26 735.163C1255.98 733.838 1258.48 733.232 1259.94 733.028Z" fill="#3A395B"/>
<path d="M1259.95 747.021C1260.01 747.019 1260.07 747.002 1260.13 746.972C1260.18 746.943 1260.23 746.901 1260.27 746.85C1260.46 746.602 1265.01 740.747 1262.55 737.118C1260.49 734.077 1260.95 732.652 1260.95 732.638C1261 732.537 1261 732.423 1260.97 732.317C1260.94 732.211 1260.87 732.121 1260.77 732.066C1260.67 732.035 1260.56 732.046 1260.47 732.097C1260.37 732.147 1260.3 732.233 1260.27 732.336C1260.19 732.524 1259.56 734.273 1261.93 737.757C1263.99 740.8 1259.79 746.21 1259.75 746.265C1259.67 746.355 1259.63 746.468 1259.62 746.586C1259.62 746.705 1259.66 746.821 1259.73 746.915C1259.75 746.948 1259.79 746.974 1259.83 746.993C1259.87 747.011 1259.91 747.021 1259.95 747.021Z" fill="#3A395B"/>
<path d="M1260.24 722.309L1294.87 724.468L1294.86 722.25L1260.24 722.309Z" fill="#3A395B"/>
<path d="M1338.23 731L1338.26 722.25L1372.88 722.309L1373.51 731.106L1338.23 731Z" fill="#FFB494"/>
<path d="M1376.51 772.55L1376.43 777.31L1310.94 777.504C1310.94 775.9 1311.13 774.302 1311.5 772.743C1312.84 767.128 1316.42 762.512 1321.21 760.574C1322.61 760.008 1323.95 759.3 1325.21 758.46C1337.89 750.018 1337.99 731.046 1337.99 731.046L1373.68 730.941L1376.51 772.55Z" fill="#F8B600"/>
<path d="M1376.51 772.504L1376.43 777.264L1310.94 777.458C1310.94 775.853 1311.13 774.255 1311.5 772.696L1376.51 772.504Z" fill="#3A395B"/>
<path d="M1345.45 734.676C1343.73 743.854 1338.05 766.573 1325.2 758.46C1337.89 750.019 1337.99 731.047 1337.99 731.047C1337.99 731.047 1339.14 725.705 1342.71 727.691C1343.94 728.429 1344.85 729.623 1345.25 731.026C1345.61 732.206 1345.68 733.46 1345.45 734.676Z" fill="white"/>
<path d="M1337.29 760.623C1337.36 760.62 1337.42 760.6 1337.48 760.564C1337.54 760.528 1337.58 760.476 1337.61 760.416C1337.67 760.313 1337.69 760.194 1337.67 760.077C1337.65 759.96 1337.6 759.854 1337.51 759.776C1334.91 757.697 1328.78 755.525 1328.52 755.433C1328.47 755.418 1328.41 755.415 1328.36 755.423C1328.31 755.431 1328.26 755.451 1328.21 755.48C1328.17 755.51 1328.13 755.549 1328.1 755.595C1328.07 755.641 1328.05 755.693 1328.04 755.747C1328.01 755.858 1328.01 755.978 1328.06 756.084C1328.11 756.189 1328.19 756.274 1328.3 756.321C1328.36 756.343 1334.58 758.544 1337.08 760.547C1337.14 760.596 1337.21 760.622 1337.29 760.623Z" fill="#3A395B"/>
<path d="M1344.37 751.905C1344.44 751.902 1344.51 751.879 1344.57 751.838C1344.63 751.796 1344.67 751.739 1344.7 751.671C1344.75 751.566 1344.77 751.446 1344.74 751.331C1344.72 751.216 1344.65 751.114 1344.56 751.042C1341.04 748.635 1333.46 749.093 1333.13 749.114C1333.02 749.132 1332.92 749.193 1332.85 749.283C1332.79 749.373 1332.75 749.487 1332.76 749.6C1332.76 749.656 1332.77 749.712 1332.79 749.765C1332.81 749.817 1332.84 749.865 1332.88 749.906C1332.91 749.947 1332.96 749.979 1333.01 750.002C1333.06 750.024 1333.11 750.037 1333.17 750.037C1333.24 750.032 1340.85 749.573 1344.17 751.846C1344.23 751.885 1344.3 751.906 1344.37 751.905Z" fill="#3A395B"/>
<path d="M1336.32 742.183C1336.34 742.182 1336.37 742.179 1336.4 742.172C1336.45 742.157 1342.02 740.733 1346.37 741.391C1346.42 741.395 1346.48 741.388 1346.53 741.37C1346.58 741.352 1346.63 741.323 1346.67 741.286C1346.71 741.248 1346.74 741.203 1346.76 741.152C1346.79 741.102 1346.8 741.047 1346.8 740.991C1346.82 740.878 1346.8 740.762 1346.74 740.666C1346.67 740.569 1346.58 740.501 1346.47 740.474C1341.99 739.792 1336.47 741.208 1336.24 741.268C1336.13 741.306 1336.04 741.383 1335.99 741.485C1335.93 741.586 1335.92 741.705 1335.94 741.818C1335.95 741.915 1335.99 742.004 1336.06 742.07C1336.13 742.137 1336.22 742.177 1336.32 742.183Z" fill="#3A395B"/>
<path d="M1347.95 732.876C1348.04 732.87 1348.13 732.833 1348.19 732.772C1348.26 732.71 1348.31 732.627 1348.32 732.536C1348.36 732.425 1348.35 732.305 1348.3 732.2C1348.25 732.095 1348.16 732.012 1348.06 731.968C1345.96 731.272 1338.23 731.952 1337.9 731.982C1337.79 732.002 1337.7 732.064 1337.63 732.157C1337.56 732.249 1337.53 732.363 1337.54 732.477C1337.54 732.533 1337.55 732.588 1337.57 732.64C1337.59 732.692 1337.62 732.739 1337.66 732.778C1337.7 732.818 1337.75 732.85 1337.8 732.871C1337.85 732.893 1337.9 732.904 1337.95 732.904C1338.03 732.896 1345.87 732.207 1347.85 732.859C1347.88 732.87 1347.92 732.876 1347.95 732.876Z" fill="#3A395B"/>
<path d="M1338.91 732.751C1338.99 732.751 1339.03 732.751 1339.05 732.751L1339.66 732.738L1339.4 732.082C1339.05 731.24 1335.95 723.852 1333.01 723.808C1332.07 723.785 1331.29 724.491 1330.67 725.876C1330.35 726.448 1330.17 727.086 1330.15 727.741C1330.12 728.395 1330.24 729.048 1330.5 729.646C1332.01 732.641 1337.91 732.753 1338.91 732.751ZM1332.97 724.734H1332.99C1334.89 724.76 1337.32 729.365 1338.41 731.821C1336.29 731.76 1332.2 731.222 1331.16 729.162C1330.97 728.704 1330.89 728.208 1330.92 727.712C1330.95 727.217 1331.1 726.736 1331.34 726.308C1331.82 725.251 1332.35 724.736 1332.97 724.734Z" fill="#3A395B"/>
<path d="M1335.25 738.679C1335.29 738.679 1335.34 738.679 1335.39 738.672C1337.44 738.453 1339.31 733.21 1339.52 732.613L1339.75 731.933L1339.14 731.977C1338.66 732.013 1334.38 732.387 1333.38 734.683C1333.21 735.117 1333.15 735.586 1333.19 736.051C1333.23 736.515 1333.38 736.964 1333.63 737.358C1334.08 738.238 1334.63 738.681 1335.25 738.679ZM1338.55 732.97C1337.75 734.997 1336.39 737.637 1335.32 737.751C1335.19 737.766 1334.77 737.81 1334.28 736.864C1334.11 736.609 1334.01 736.316 1333.97 736.011C1333.93 735.705 1333.96 735.395 1334.07 735.105C1334.64 733.78 1337.1 733.173 1338.55 732.97Z" fill="#3A395B"/>
<path d="M1340.19 746.963C1340.25 746.962 1340.31 746.945 1340.36 746.915C1340.41 746.885 1340.46 746.843 1340.49 746.791C1340.66 746.544 1344.58 740.689 1341.67 737.06C1339.23 734.019 1339.52 732.594 1339.53 732.58C1339.56 732.47 1339.55 732.352 1339.5 732.247C1339.46 732.143 1339.38 732.058 1339.28 732.008C1339.23 731.991 1339.18 731.985 1339.13 731.99C1339.07 731.995 1339.02 732.011 1338.98 732.037C1338.93 732.063 1338.89 732.098 1338.86 732.14C1338.83 732.182 1338.81 732.231 1338.8 732.282C1338.74 732.47 1338.31 734.22 1341.11 737.704C1343.55 740.748 1339.93 746.156 1339.89 746.211C1339.83 746.31 1339.8 746.428 1339.81 746.546C1339.82 746.664 1339.87 746.776 1339.95 746.861C1340.01 746.927 1340.1 746.963 1340.19 746.963Z" fill="#3A395B"/>
<path d="M1372.88 722.309L1338.26 724.468L1338.26 722.25L1372.88 722.309Z" fill="#3A395B"/>
<path d="M1374.14 454.463H1271.14L1258.04 722.502H1296.74L1317.13 508.493L1337.1 722.502H1374.35L1374.14 454.463Z" fill="#3A395B"/>
<path d="M1271.03 454.463H1373.93V467.054H1271.03V454.463Z" fill="#3A395B"/>
<path d="M1268.35 328.692C1268.35 328.692 1315.98 308.95 1378.78 324.016C1384.62 325.417 1389.69 329.086 1392.93 334.245C1398.39 342.992 1405.86 359.828 1409.96 390.044L1373.39 397.597L1373.93 454.467H1271.03V393.219L1244.77 382.829C1244.77 382.829 1261 331.218 1268.35 328.692Z" fill="#D55459"/>
<path d="M1408.23 390.485L1413.64 417.255C1414.49 421.484 1413.82 425.886 1411.76 429.654L1376.92 493.141C1376.11 494.341 1375.02 495.321 1373.76 495.995C1372.49 496.668 1371.08 497.016 1369.65 497.007C1368.22 496.998 1366.82 496.633 1365.56 495.944C1364.3 495.254 1363.23 494.261 1362.43 493.051C1360.18 489.638 1358.76 485.728 1358.28 481.643C1357.81 477.558 1358.29 473.417 1359.7 469.561L1378.99 416.621L1373.39 397.589L1408.23 390.485Z" fill="#FFB494"/>
<path d="M1246.73 383.604L1243.18 413.279C1242.53 418.725 1243.14 424.251 1244.98 429.408L1265.24 486.253C1268.02 491.359 1274.22 491.154 1277.17 485.859C1281.08 478.704 1282.06 470.258 1279.89 462.368L1271.03 418.447V393.222L1246.73 383.604Z" fill="#FFB494"/>
<path d="M1408.23 390.485L1374.12 400.061L1373.39 397.593L1408.23 390.485Z" fill="#3A395B"/>
<path d="M1379 416.624H1386" stroke="#3A395B" stroke-width="0.715043" stroke-miterlimit="10"/>
<path d="M1317.13 508.492L1314.02 478.36" stroke="#3A395B" stroke-width="0.715043" stroke-miterlimit="10"/>
<path d="M1358.11 467.054C1358.11 467.054 1353.19 501.046 1374.35 497.929" stroke="#3A395B" stroke-width="0.715043" stroke-miterlimit="10"/>
<path d="M1280.66 463.888C1280.66 463.888 1284.03 489.966 1269.42 489.787" stroke="#3A395B" stroke-width="0.715043" stroke-miterlimit="10"/>
<path d="M1246.73 383.604L1246.4 386.405L1271.03 393.217L1246.73 383.604Z" fill="#3A395B"/>
<path d="M1271.03 418.443H1264.84" stroke="#3A395B" stroke-width="0.715043" stroke-miterlimit="10"/>
<path d="M1271.03 393.219V351.426" stroke="#3A395B" stroke-width="0.715043" stroke-miterlimit="10"/>
<path d="M1373.39 397.594L1358.11 351.426" stroke="#3A395B" stroke-width="0.715043" stroke-miterlimit="10"/>
<path d="M1337.96 295.88L1338.6 318.019L1338.46 323.545C1338.36 326.894 1337 330.075 1334.64 332.412C1332.29 334.748 1329.13 336.057 1325.85 336.06C1322.57 336.062 1319.41 334.759 1317.05 332.426C1314.7 330.093 1313.32 326.915 1313.23 323.566L1313.09 318.791L1314.1 309.92C1314.1 309.92 1296.32 313.752 1302.34 285.275C1302.54 284.363 1302.76 283.426 1303 282.45C1304.1 278.078 1305.45 273.771 1307.02 269.551C1307.02 269.551 1332.38 253.53 1336.26 281.595L1338.11 281.262C1338.83 281.131 1339.57 281.153 1340.27 281.329C1340.98 281.505 1341.64 281.829 1342.22 282.282C1342.8 282.735 1343.28 283.305 1343.62 283.958C1343.97 284.61 1344.18 285.329 1344.24 286.07L1344.34 287.328C1344.5 289.305 1343.93 291.27 1342.75 292.848C1341.57 294.426 1339.87 295.505 1337.96 295.88Z" fill="#FFB494"/>
<path d="M1344.33 287.316L1344.24 286.075C1344.18 285.335 1343.97 284.614 1343.62 283.961C1343.27 283.308 1342.8 282.736 1342.22 282.282C1341.64 281.829 1340.98 281.503 1340.27 281.327C1339.56 281.152 1338.83 281.129 1338.11 281.261L1336.27 281.596L1336.07 281.632C1335.06 281.825 1334.12 282.335 1333.4 283.092C1332.68 283.849 1332.21 284.816 1332.05 285.859L1330.14 298.274C1329.71 301.053 1328.42 303.617 1326.45 305.587C1324.48 307.556 1321.94 308.826 1319.21 309.207L1314.1 309.926C1312.09 310.193 1310.05 310.015 1308.11 309.404C1295.86 305.407 1300.52 290.113 1301.57 287.133C1301.62 286.99 1301.72 286.868 1301.84 286.788C1301.97 286.708 1302.12 286.674 1302.27 286.691C1304.78 286.86 1307.29 286.586 1309.71 285.882C1311.87 285.201 1315 289.653 1319.91 288.962C1320.66 288.849 1321.39 288.564 1322.02 288.128C1322.66 287.692 1323.19 287.117 1323.58 286.444L1327.87 279.111C1328.19 278.558 1328.39 277.939 1328.44 277.298C1328.5 276.657 1328.41 276.012 1328.19 275.409L1327.46 273.424C1327.27 272.898 1326.9 272.46 1326.41 272.193C1325.93 271.926 1325.37 271.847 1324.83 271.971C1321.03 272.843 1312.44 274.189 1306.77 270.244H1306.76C1299.32 265.064 1295.96 252.274 1306.01 251.249C1316.05 250.224 1330.18 262.824 1338.6 259.534C1347.01 256.243 1346.38 268.56 1341.86 269.129C1341.86 269.129 1358.23 274.184 1338.25 306.066L1337.96 295.886C1339.87 295.51 1341.58 294.428 1342.75 292.846C1343.93 291.265 1344.49 289.295 1344.33 287.316Z" fill="#3A395B"/>
<path d="M1303.68 267.402C1303.68 267.402 1299.2 270.755 1303.59 280.152L1306.77 270.235C1305.66 269.383 1304.63 268.435 1303.68 267.402Z" fill="#3A395B"/>
<path d="M1341.88 290.557L1340.82 290.028C1341.34 287.564 1341.15 285.835 1340.26 285.03C1339.09 283.964 1336.93 284.67 1336.9 284.67L1336.36 283.741C1336.48 283.701 1339.21 282.785 1340.93 284.35C1342.19 285.495 1342.5 287.583 1341.88 290.557Z" fill="#3A395B"/>
<path d="M1310.68 293.171C1312.45 293.365 1314.22 292.875 1315.66 291.797L1314.93 290.965C1314.84 291.046 1312.65 292.938 1308.01 291.575L1307.71 292.648C1308.67 292.94 1309.67 293.116 1310.68 293.171Z" fill="#D55459"/>
<path d="M1310.39 289.104C1310.19 289.081 1309.99 289.018 1309.82 288.919C1309.65 288.82 1309.49 288.687 1309.37 288.527C1307.82 286.512 1310.98 279.9 1311.63 278.594C1311.65 278.538 1311.69 278.487 1311.74 278.446C1311.78 278.404 1311.83 278.372 1311.89 278.352C1311.95 278.332 1312.01 278.324 1312.07 278.328C1312.13 278.332 1312.19 278.349 1312.25 278.377C1312.3 278.406 1312.35 278.445 1312.39 278.493C1312.43 278.54 1312.46 278.596 1312.48 278.655C1312.5 278.715 1312.5 278.778 1312.5 278.84C1312.49 278.902 1312.47 278.962 1312.44 279.017C1311.04 281.834 1309.16 286.751 1310.09 287.951C1310.16 288.041 1310.37 288.321 1311.19 288.126C1311.31 288.098 1311.44 288.119 1311.54 288.185C1311.64 288.25 1311.71 288.354 1311.74 288.475C1311.77 288.595 1311.75 288.722 1311.68 288.827C1311.62 288.932 1311.52 289.007 1311.4 289.035C1311.07 289.122 1310.73 289.145 1310.39 289.104Z" fill="#3A395B"/>
<path d="M1323.19 277.251C1322.55 276.873 1321.88 276.557 1321.19 276.305C1320.5 276.054 1319.79 275.874 1319.06 275.766C1318.36 275.673 1317.65 275.68 1316.95 275.787C1316.28 275.911 1315.63 276.155 1315.04 276.507L1315 276.531C1314.84 276.611 1314.65 276.624 1314.48 276.569C1314.31 276.513 1314.16 276.394 1314.07 276.233C1313.99 276.073 1313.96 275.885 1314 275.706C1314.05 275.528 1314.15 275.373 1314.3 275.272L1314.34 275.255C1315.1 274.856 1315.93 274.6 1316.78 274.499C1317.6 274.423 1318.44 274.466 1319.25 274.627C1320.04 274.796 1320.81 275.045 1321.55 275.371C1322.29 275.692 1323 276.084 1323.66 276.54C1323.76 276.602 1323.82 276.699 1323.84 276.81C1323.87 276.921 1323.85 277.037 1323.79 277.133C1323.73 277.229 1323.63 277.297 1323.53 277.323C1323.42 277.349 1323.3 277.33 1323.21 277.271L1323.19 277.251Z" fill="#3A395B"/>
<path d="M1301.58 274.278C1302.33 273.986 1303.1 273.768 1303.89 273.625C1304.68 273.476 1305.49 273.41 1306.3 273.427C1307.12 273.456 1307.95 273.605 1308.73 273.869C1309.54 274.163 1310.29 274.602 1310.95 275.165C1311.02 275.225 1311.08 275.299 1311.12 275.383C1311.17 275.467 1311.19 275.559 1311.2 275.653C1311.21 275.748 1311.2 275.844 1311.18 275.935C1311.15 276.026 1311.11 276.11 1311.05 276.184C1310.99 276.258 1310.91 276.319 1310.83 276.364C1310.75 276.409 1310.66 276.437 1310.57 276.446C1310.48 276.456 1310.38 276.447 1310.29 276.419C1310.2 276.392 1310.12 276.347 1310.05 276.287L1310.02 276.263L1309.98 276.228C1309.49 275.749 1308.91 275.363 1308.28 275.087C1307.62 274.822 1306.93 274.651 1306.23 274.582C1305.5 274.521 1304.76 274.536 1304.04 274.625C1303.31 274.71 1302.58 274.865 1301.88 275.087L1301.86 275.093C1301.75 275.129 1301.64 275.121 1301.54 275.071C1301.44 275.021 1301.36 274.933 1301.33 274.826C1301.29 274.72 1301.3 274.602 1301.34 274.5C1301.39 274.397 1301.47 274.318 1301.58 274.278Z" fill="#3A395B"/>
<path d="M1317.36 281.916C1316.77 281.847 1316.37 281.049 1316.47 280.132C1316.57 279.215 1317.14 278.527 1317.73 278.596C1318.32 278.664 1318.71 279.463 1318.61 280.38C1318.51 281.297 1317.95 281.985 1317.36 281.916Z" fill="#3A395B"/>
<path d="M1306.34 280.638C1305.75 280.57 1305.36 279.771 1305.46 278.854C1305.56 277.937 1306.12 277.249 1306.71 277.318C1307.3 277.386 1307.7 278.185 1307.6 279.102C1307.49 280.019 1306.93 280.707 1306.34 280.638Z" fill="#3A395B"/>
<path d="M1316.52 288.071C1314.9 287.729 1313.73 286.702 1313.92 285.779C1314.1 284.855 1315.57 284.384 1317.2 284.726C1318.82 285.069 1319.99 286.095 1319.8 287.018C1319.62 287.942 1318.15 288.413 1316.52 288.071Z" fill="#FC6D6D"/>
<path d="M1307.16 284.827C1306.98 285.75 1305.51 286.21 1303.89 285.869C1303.34 285.763 1302.82 285.562 1302.34 285.274C1302.54 284.363 1302.75 283.425 1303 282.45C1303.52 282.385 1304.04 282.412 1304.55 282.529C1306.19 282.869 1307.35 283.903 1307.16 284.827Z" fill="#FC6D6D"/>
<path d="M1315.53 467.054C1310.64 467.054 1306.68 464.309 1306.68 460.923C1306.68 457.537 1310.64 454.792 1315.53 454.792C1320.42 454.792 1324.38 457.537 1324.38 460.923C1324.38 464.309 1320.42 467.054 1315.53 467.054Z" fill="#F8B600"/>
<path d="M1362.43 493.054L1363.44 722.249" stroke="#3A395B" stroke-width="0.715043" stroke-miterlimit="10"/>
<path d="M1315.04 488.216L1284.55 722.25" stroke="#3A395B" stroke-width="0.715043" stroke-miterlimit="10"/>
<path d="M1244.82 437.281H1251.22" stroke="#3A395B" stroke-width="0.653846" stroke-miterlimit="10"/>
<path d="M1167.16 521.562C1167.16 521.562 1186.49 719.196 1189.82 733.158H1227.92C1227.92 733.158 1212.49 545.46 1219.09 521.562H1167.16Z" fill="#FFB494"/>
<path d="M1167.16 521.562C1162.38 547.718 1158.08 575.253 1154.49 604.09C1148.81 649.81 1145.63 692.994 1144.2 733.16H1109.93C1109.93 733.16 1110.85 557.678 1123.06 523.142L1167.16 521.562Z" fill="#FFB494"/>
<path d="M1099.73 716.745H1153.89C1154.79 690.92 1149.94 663.898 1152.46 635.795C1156.12 595.018 1161.23 556.853 1167.16 521.564C1169.03 553.477 1168.27 586.288 1171.42 619.943C1174.54 653.126 1176.54 685.409 1180.57 716.744H1234.78C1227.99 690.503 1223.57 663.683 1221.58 636.62C1219.9 613.933 1220.56 599.605 1221.26 557.665C1221.63 535.813 1222.05 503.542 1222.14 463.693H1128.55C1120.42 510.27 1115.81 550.771 1113.07 583.142C1109.2 628.938 1099.75 708.033 1099.73 716.745Z" fill="#F8B600"/>
<path d="M1159.86 777.319H1214.78L1221.26 758.445L1223.85 777.319H1233.09L1227.91 733.16H1189.82C1189.82 733.16 1189.82 748.705 1178.54 757.342C1176.32 759.03 1173.86 760.342 1171.23 761.228C1167.92 762.357 1165.05 764.518 1163.01 767.405C1160.97 770.292 1159.87 773.76 1159.86 777.319Z" fill="#7091D1"/>
<path d="M1178.54 757.342C1179.16 759.338 1180.76 760.705 1183.72 761.088C1197.24 762.813 1200.43 740.681 1201.11 733.16H1189.82C1189.82 733.16 1189.82 748.706 1178.54 757.342Z" fill="#FFB494"/>
<path d="M1083.15 777.319H1132.48L1138.3 758.445L1140.62 777.319H1148.93L1144.27 733.16H1110.06C1110.06 733.16 1110.06 748.705 1099.92 757.342C1097.97 759.009 1095.75 760.324 1093.36 761.228C1087.28 763.558 1083.15 770.016 1083.15 777.319Z" fill="#7091D1"/>
<path d="M1099.93 757.342C1100.48 759.338 1101.92 760.705 1104.58 761.088C1116.73 762.813 1119.58 740.681 1120.2 733.16H1110.06C1110.06 733.16 1110.06 748.706 1099.93 757.342Z" fill="#FFB494"/>
<path d="M1203.14 733.16H1189.82L1189.55 736.478H1203.6L1203.14 733.16Z" fill="#7091D1"/>
<path d="M1123.08 733.16H1110L1109.74 736.478H1123.54L1123.08 733.16Z" fill="#7091D1"/>
<path d="M1226.62 716.745H1187.48L1187.83 719.581L1226.62 716.745Z" fill="#3A395B"/>
<path d="M1144.88 716.745C1144.88 716.745 1144.78 718.818 1144.78 718.943C1144.77 719.068 1110.09 716.745 1110.09 716.745H1144.88Z" fill="#3A395B"/>
<path d="M1167.16 521.565L1165.64 490.572" stroke="#3A395B" stroke-width="0.728732" stroke-miterlimit="10"/>
<path d="M1157.1 337.848C1157.1 337.848 1148.31 341.598 1146.91 350.16C1145.52 358.722 1206.9 355.795 1206.9 355.795C1205.65 352.32 1203.88 349.071 1201.62 346.173C1199.41 343.462 1197.88 340.241 1197.16 336.79C1196.44 333.338 1196.56 329.76 1197.51 326.366L1157.1 337.848Z" fill="#3A395B"/>
<path d="M1102.44 410.165C1110 392.105 1124.6 358.572 1129.49 356.891C1129.49 356.891 1161.73 338.847 1219.14 352.606C1224.48 353.892 1229.12 357.249 1232.08 361.966C1235.87 368.03 1250.04 402.535 1256.62 418.783C1258.82 424.219 1258.98 430.289 1257.08 435.838L1246.93 465.251L1237.53 492.556L1233.74 489.326L1213.2 471.875H1133.74L1115.77 483.97L1111.92 486.558L1104.54 452.514V452.499L1101.41 438.098V438.064L1100.36 433.203C1098.68 425.49 1099.41 417.434 1102.44 410.165ZM1220.67 419.887L1220.97 449.449L1225.52 436.283L1226.67 432.956L1220.67 419.887Z" fill="#7091D1"/>
<path d="M1154.94 301.338C1154.94 301.338 1146.6 320.812 1153.65 328.973C1160.71 337.135 1154.94 301.338 1154.94 301.338Z" fill="#3A395B"/>
<path d="M1153.41 326.071C1153.67 332.991 1156.01 339.34 1162.81 342.006L1161.71 351.192C1161.58 352.276 1161.67 353.376 1161.96 354.427C1162.25 355.478 1162.74 356.46 1163.41 357.314C1164.08 358.169 1164.9 358.879 1165.84 359.404C1166.78 359.929 1167.81 360.258 1168.88 360.372C1169.25 360.411 1169.62 360.431 1170 360.432C1172.76 360.428 1175.41 359.328 1177.39 357.364C1179.37 355.401 1180.53 352.727 1180.61 349.91L1181.78 334.722L1187.24 333.921C1188.32 333.78 1189.34 333.342 1190.2 332.653C1191.05 331.965 1191.71 331.053 1192.09 330.014C1192.13 329.882 1192.18 329.751 1192.21 329.613L1192.62 328.115C1192.87 327.215 1192.91 326.271 1192.74 325.353C1192.57 324.435 1192.21 323.567 1191.66 322.817C1191.12 322.066 1190.41 321.452 1189.6 321.021C1188.79 320.59 1187.89 320.354 1186.98 320.329V320.098C1186.98 317.641 1186.54 296.323 1171.3 296.871C1167.67 297.042 1164.18 298.393 1161.35 300.726C1158.52 303.06 1156.5 306.254 1155.58 309.843C1154.39 314.14 1153.67 318.556 1153.42 323.012C1153.37 324.042 1153.37 325.061 1153.41 326.071Z" fill="#FFB494"/>
<path d="M1160.86 329.148C1161.1 329.145 1161.35 329.109 1161.58 329.043C1161.68 329.011 1161.77 328.942 1161.82 328.849C1161.87 328.756 1161.88 328.647 1161.85 328.544C1161.83 328.442 1161.76 328.353 1161.67 328.298C1161.59 328.242 1161.48 328.224 1161.38 328.247C1160.58 328.46 1160.36 328.19 1160.29 328.101C1159.37 326.976 1161.02 322.237 1162.28 319.514C1162.32 319.415 1162.33 319.302 1162.29 319.2C1162.26 319.097 1162.18 319.013 1162.08 318.967C1161.99 318.921 1161.88 318.915 1161.78 318.952C1161.68 318.989 1161.59 319.066 1161.55 319.164C1161.2 319.933 1158.12 326.734 1159.67 328.628C1159.82 328.801 1160 328.938 1160.2 329.028C1160.41 329.118 1160.63 329.159 1160.86 329.148Z" fill="#3A395B"/>
<path d="M1168.19 328.253C1166.16 328.078 1164.6 327.003 1164.69 325.85C1164.79 324.698 1166.51 323.905 1168.54 324.079C1170.57 324.253 1172.14 325.328 1172.04 326.481C1171.95 327.633 1170.22 328.427 1168.19 328.253Z" fill="#FC6D6D"/>
<path d="M1153.41 326.071C1154.13 326.329 1154.89 326.422 1155.65 326.346C1157.51 326.187 1158.96 325.194 1158.87 324.134C1158.79 323.075 1157.2 322.336 1155.33 322.5C1154.67 322.553 1154.02 322.728 1153.42 323.015C1153.37 324.042 1153.37 325.062 1153.41 326.071Z" fill="#FC6D6D"/>
<path d="M1154.32 315.388C1157.81 313.639 1160.83 311.051 1163.12 307.845C1177.75 326.797 1186.97 320.331 1186.97 320.331C1186.97 320.331 1187.43 298.14 1173.13 296.913C1172.52 296.862 1171.91 296.849 1171.3 296.872C1167.67 297.043 1164.18 298.393 1161.35 300.727C1158.53 303.061 1156.5 306.255 1155.58 309.845C1155.12 311.552 1154.68 313.425 1154.32 315.388Z" fill="#FB7E60"/>
<path d="M1162.81 342.007C1162.81 342.007 1166.95 343.453 1171.88 339.805C1170.89 341.37 1169.49 342.622 1167.84 343.418C1166.19 344.215 1164.35 344.525 1162.54 344.313L1162.81 342.007Z" fill="#3A395B"/>
<path d="M1153.99 315.559C1154.11 315.504 1154.21 315.444 1154.32 315.389C1157.81 313.64 1160.83 311.05 1163.13 307.844C1177.76 326.797 1186.98 320.333 1186.98 320.333C1187.89 320.357 1188.79 320.594 1189.6 321.026C1190.41 321.457 1191.12 322.072 1191.66 322.823C1192.21 323.574 1192.58 324.442 1192.74 325.36C1192.91 326.279 1192.87 327.224 1192.62 328.124L1192.21 329.612C1192.18 329.748 1192.13 329.886 1192.09 330.017C1191.7 331.056 1191.05 331.969 1190.2 332.657C1189.35 333.346 1188.33 333.784 1187.25 333.924L1181.78 334.726L1180.79 347.556C1184.08 347.638 1187.81 347.518 1191.29 347.786C1191.59 345.934 1192.13 344.13 1192.9 342.421C1196.19 333.499 1197.63 326.135 1198.01 320.154C1198.88 306.234 1189.8 293.497 1176.37 290.853C1152.83 286.208 1148.71 318.248 1153.99 315.559Z" fill="#3A395B"/>
<path d="M1173.98 316.55C1173.34 316.136 1172.65 315.785 1171.95 315.503C1171.23 315.214 1170.5 314.999 1169.74 314.861C1168.96 314.731 1168.17 314.714 1167.39 314.81C1166.58 314.931 1165.81 315.197 1165.09 315.598C1165.01 315.64 1164.94 315.697 1164.89 315.767C1164.83 315.837 1164.79 315.917 1164.76 316.004C1164.73 316.091 1164.72 316.182 1164.73 316.272C1164.74 316.363 1164.77 316.451 1164.81 316.531C1164.85 316.611 1164.91 316.682 1164.98 316.74C1165.04 316.797 1165.12 316.841 1165.21 316.867C1165.29 316.893 1165.38 316.902 1165.47 316.892C1165.56 316.883 1165.65 316.856 1165.72 316.813L1165.75 316.797L1165.79 316.771C1166.35 316.419 1166.95 316.169 1167.59 316.031C1168.25 315.909 1168.93 315.881 1169.6 315.95C1170.28 316.033 1170.96 316.186 1171.62 316.406C1172.29 316.625 1172.93 316.907 1173.55 317.247L1173.57 317.257C1173.66 317.313 1173.77 317.329 1173.87 317.302C1173.98 317.275 1174.06 317.207 1174.12 317.114C1174.17 317.02 1174.19 316.908 1174.16 316.802C1174.14 316.697 1174.07 316.606 1173.98 316.55H1173.98Z" fill="#3A395B"/>
<path d="M1152.06 316.015C1152.72 315.784 1153.4 315.617 1154.1 315.514C1154.78 315.409 1155.48 315.375 1156.17 315.411C1156.85 315.457 1157.51 315.599 1158.14 315.833C1158.75 316.076 1159.3 316.427 1159.79 316.868L1159.82 316.898C1159.89 316.957 1159.97 317.002 1160.05 317.031C1160.14 317.059 1160.23 317.07 1160.31 317.063C1160.4 317.056 1160.49 317.032 1160.57 316.991C1160.65 316.95 1160.72 316.894 1160.78 316.825C1160.83 316.757 1160.88 316.677 1160.91 316.591C1160.93 316.505 1160.94 316.414 1160.94 316.324C1160.93 316.234 1160.91 316.146 1160.87 316.065C1160.83 315.984 1160.77 315.912 1160.7 315.853L1160.68 315.83C1160.04 315.314 1159.32 314.918 1158.54 314.661C1157.79 314.432 1157 314.314 1156.21 314.31C1155.45 314.318 1154.68 314.403 1153.93 314.566C1153.19 314.725 1152.46 314.955 1151.75 315.253C1151.65 315.292 1151.57 315.369 1151.53 315.469C1151.49 315.569 1151.48 315.682 1151.52 315.784C1151.56 315.885 1151.64 315.968 1151.73 316.012C1151.83 316.056 1151.94 316.06 1152.04 316.021L1152.06 316.015Z" fill="#3A395B"/>
<path d="M1168.73 321.893C1168.17 321.845 1167.77 321.097 1167.84 320.224C1167.92 319.35 1168.43 318.681 1168.99 318.73C1169.56 318.778 1169.95 319.525 1169.88 320.399C1169.81 321.272 1169.3 321.941 1168.73 321.893Z" fill="#3A395B"/>
<path d="M1157.07 320.892C1156.51 320.843 1156.11 320.096 1156.18 319.223C1156.25 318.349 1156.77 317.68 1157.33 317.728C1157.89 317.777 1158.29 318.524 1158.22 319.397C1158.15 320.271 1157.63 320.94 1157.07 320.892Z" fill="#3A395B"/>
<path d="M1167.04 332.23C1164.8 333.409 1162.26 333.865 1159.76 333.537C1159.45 333.49 1159.24 333.971 1159.43 334.281C1160.6 336.12 1163.68 339.592 1167.42 332.918C1167.63 332.549 1167.37 332.064 1167.04 332.23Z" fill="#D55459"/>
<path d="M1189.47 330.347C1190.33 328.138 1190.36 326.347 1189.54 325.022C1189.11 324.429 1188.56 323.937 1187.92 323.58C1187.29 323.223 1186.59 323.009 1185.87 322.954L1185.81 323.775L1185.84 323.365L1185.81 323.775C1186.41 323.825 1186.99 324.002 1187.51 324.294C1188.04 324.586 1188.5 324.986 1188.86 325.469C1189.53 326.558 1189.48 328.097 1188.72 330.045L1189.47 330.347Z" fill="#3A395B"/>
<path d="M1162.92 319.377C1162.93 319.254 1162.95 319.116 1162.96 318.992C1163.06 317.644 1163.47 316.341 1164.18 315.197C1164.88 314.052 1165.85 313.101 1166.99 312.427C1167.76 312.022 1168.63 311.846 1169.5 311.919C1170.34 312.018 1171.15 312.319 1171.85 312.799C1172.56 313.278 1173.14 313.921 1173.56 314.676C1173.9 315.239 1174.17 315.843 1174.36 316.474C1174.48 316.872 1174.58 317.279 1174.65 317.691C1174.72 318.104 1174.77 318.52 1174.8 318.938C1174.83 319.421 1174.82 319.905 1174.78 320.386C1174.65 322.665 1173.67 324.807 1172.05 326.378V326.393C1171.11 327.305 1169.87 327.827 1168.58 327.856C1168.45 327.859 1168.32 327.854 1168.19 327.841C1167.5 327.763 1166.84 327.545 1166.24 327.201C1165.64 326.857 1165.12 326.394 1164.7 325.839C1163.48 324.244 1162.84 322.269 1162.89 320.248V320.125C1162.88 319.875 1162.89 319.625 1162.92 319.377ZM1165.29 324.845C1165.61 325.37 1166.05 325.813 1166.57 326.144C1167.09 326.474 1167.67 326.683 1168.28 326.755C1168.9 326.789 1169.52 326.681 1170.09 326.438C1170.67 326.196 1171.18 325.825 1171.6 325.353C1172.85 323.966 1173.6 322.183 1173.71 320.301C1173.77 319.603 1173.75 318.899 1173.65 318.206C1173.62 317.927 1173.56 317.649 1173.5 317.375C1173.48 317.313 1173.47 317.267 1173.45 317.206C1173.41 317.023 1173.35 316.843 1173.29 316.666C1173.21 316.434 1173.12 316.208 1173.02 315.989C1172.91 315.74 1172.78 315.498 1172.64 315.265C1172.31 314.658 1171.85 314.138 1171.29 313.748C1170.73 313.357 1170.08 313.107 1169.41 313.017H1169.12C1168.67 313.019 1168.23 313.108 1167.81 313.278C1166.98 313.61 1166.26 314.164 1165.71 314.88C1165.54 315.083 1165.39 315.3 1165.26 315.528C1165.07 315.806 1164.91 316.1 1164.77 316.405C1164.33 317.37 1164.07 318.408 1163.99 319.47C1163.78 321.362 1164.24 323.268 1165.29 324.845H1165.29Z" fill="#3A395B"/>
<path d="M1150.83 318.715L1150.85 318.346C1150.96 316.807 1151.38 315.308 1152.08 313.939C1152.26 313.589 1152.47 313.254 1152.7 312.937C1153.32 312.002 1154.23 311.304 1155.28 310.951C1155.58 310.854 1155.9 310.802 1156.21 310.797C1156.33 310.794 1156.44 310.799 1156.55 310.813C1157.54 310.911 1158.45 311.404 1159.08 312.183C1159.45 312.598 1159.76 313.058 1160 313.553C1160.38 314.311 1160.64 315.12 1160.79 315.956V315.972C1160.83 316.169 1160.86 316.37 1160.88 316.572C1160.98 317.316 1161.01 318.071 1160.95 318.82C1160.95 318.949 1160.95 319.077 1160.94 319.205C1160.92 319.458 1160.89 319.71 1160.85 319.96C1160.76 320.634 1160.61 321.299 1160.41 321.947C1160.32 322.158 1160.23 322.374 1160.17 322.594C1159.9 323.318 1159.53 324.002 1159.08 324.627C1158.56 325.381 1157.85 325.99 1157.04 326.398C1156.57 326.628 1156.05 326.749 1155.53 326.753C1155.43 326.755 1155.33 326.75 1155.23 326.737C1154.62 326.679 1154.04 326.467 1153.54 326.121C1153.49 326.09 1153.45 326.059 1153.39 326.014C1151.97 324.966 1151 322.855 1150.82 320.314C1150.81 320.022 1150.79 319.713 1150.79 319.406C1150.79 319.175 1150.8 318.944 1150.83 318.715ZM1153.38 324.476C1153.61 324.796 1153.9 325.064 1154.24 325.265C1154.57 325.466 1154.94 325.595 1155.33 325.645C1155.98 325.692 1156.62 325.495 1157.14 325.091C1157.56 324.78 1157.93 324.4 1158.23 323.967C1158.35 323.802 1158.46 323.626 1158.56 323.443C1159.32 322.124 1159.77 320.643 1159.87 319.115C1159.94 318.382 1159.93 317.643 1159.84 316.912C1159.79 316.282 1159.65 315.662 1159.45 315.064C1159.34 314.719 1159.21 314.385 1159.04 314.063C1158.83 313.629 1158.56 313.226 1158.24 312.862C1157.79 312.329 1157.15 311.989 1156.46 311.907H1156.27C1155.81 311.911 1155.36 312.039 1154.97 312.277C1154.42 312.609 1153.94 313.054 1153.56 313.586C1153.28 313.987 1153.03 314.415 1152.82 314.864C1152.75 315.009 1152.68 315.159 1152.63 315.313C1152.55 315.514 1152.48 315.713 1152.42 315.914C1152.15 316.733 1151.99 317.581 1151.92 318.44C1151.66 320.568 1152.19 322.717 1153.39 324.476H1153.38Z" fill="#3A395B"/>
<path d="M1163.17 320.264L1163.69 319.305C1163.16 319.022 1162.58 318.851 1161.98 318.8C1161.38 318.749 1160.78 318.82 1160.21 319.009L1160.58 320.041C1161.44 319.77 1162.36 319.85 1163.17 320.264Z" fill="#3A395B"/>
<path d="M1186.98 320.878C1187.11 320.877 1187.23 320.828 1187.33 320.74C1187.43 320.651 1187.49 320.53 1187.51 320.398C1187.52 320.266 1187.49 320.133 1187.42 320.022C1187.35 319.912 1187.24 319.833 1187.11 319.799L1173.9 316.367C1173.83 316.347 1173.76 316.341 1173.69 316.35C1173.62 316.359 1173.55 316.382 1173.49 316.419C1173.43 316.456 1173.37 316.505 1173.33 316.563C1173.28 316.622 1173.25 316.688 1173.23 316.759C1173.22 316.831 1173.21 316.905 1173.22 316.977C1173.24 317.05 1173.26 317.119 1173.3 317.182C1173.34 317.244 1173.39 317.298 1173.44 317.341C1173.5 317.384 1173.57 317.414 1173.64 317.43L1186.85 320.862C1186.89 320.873 1186.93 320.879 1186.98 320.878Z" fill="#3A395B"/>
<path d="M1118.82 528.478C1125.13 526.534 1130.27 524.688 1134.44 522.975C1152.38 515.625 1152.41 510.781 1152.41 510.781C1152.04 506.084 1151.78 501.174 1151.62 496.099C1150.89 474.462 1151.86 449.91 1153.43 427.104C1156.32 384.672 1161.26 348.339 1161.26 348.339C1155.73 347.983 1150.18 348.618 1144.87 350.216C1140.44 351.475 1136.18 353.285 1132.19 355.605C1133.78 362.709 1127.09 380.01 1127.09 380.01V427.949L1128.62 438.034L1133.74 471.88L1123.89 478.505L1123.79 478.57L1118.82 528.478Z" fill="#3A5793"/>
<path d="M1175.27 431.882C1175.64 456.929 1176.98 481.466 1177.95 496.359C1178.51 505.307 1178.95 510.778 1178.95 510.778C1202.7 542.762 1229.01 539.515 1229.01 539.515L1228.95 538.494L1225.27 482.122L1213.09 471.362L1213.07 471.345L1222.79 444.172L1222.71 443.003L1221.39 422.62L1210.43 388.906C1207.65 371.356 1210.73 362.079 1214 357.3C1216.51 353.577 1219.15 352.604 1219.15 352.604C1207.69 349.288 1195.84 347.591 1183.92 347.562C1176.2 358.043 1174.7 395.498 1175.27 431.882Z" fill="#3A5793"/>
<path d="M1222.71 443.005C1221.61 443.005 1220.51 443.022 1219.42 443.055C1210.13 443.382 1200.96 445.281 1192.28 448.674C1188.44 450.189 1184.53 452.101 1182 455.43C1179.46 458.759 1178.74 463.85 1181.32 467.13C1184.32 470.936 1189.93 470.738 1194.71 470.524C1200.84 470.26 1206.99 470.541 1213.08 471.364" stroke="white" stroke-width="0.77624" stroke-miterlimit="10"/>
<path d="M1228.95 538.497C1226.42 537.674 1224 536.533 1221.75 535.102C1206.39 525.858 1190.48 516.07 1180.84 500.779C1179.9 499.296 1179 497.746 1177.95 496.362" stroke="white" stroke-width="0.77624" stroke-miterlimit="10"/>
<path d="M1151.62 496.098C1144.98 500.159 1139.91 506.417 1137.25 513.829C1136.21 516.811 1135.53 520.025 1134.44 522.974" stroke="white" stroke-width="0.77624" stroke-miterlimit="10"/>
<path d="M1128.62 438.029C1130.82 438.029 1133.02 438.111 1135.21 438.325C1136.45 438.336 1137.66 438.708 1138.7 439.396C1140.15 440.534 1140.46 442.609 1140.65 444.488C1141.72 455.099 1141.72 467.607 1133.52 474.232C1130.66 476.372 1127.37 477.83 1123.89 478.5" stroke="white" stroke-width="0.77624" stroke-miterlimit="10"/>
<path d="M1153.43 427.103C1152.75 426.823 1152.09 426.493 1151.43 426.164C1143.73 422.259 1136.72 415.338 1135.76 406.604C1134.76 397.409 1140.48 389.088 1145.18 381.179C1149.88 373.27 1153.77 363.151 1149.26 355.11C1148.18 353.165 1146.68 351.493 1144.87 350.215" stroke="white" stroke-width="0.77624" stroke-miterlimit="10"/>
<path d="M1213.99 357.302C1208.34 356.95 1202.67 356.961 1197.02 357.335C1194.38 357.5 1191.57 357.812 1189.51 359.493C1187.7 360.976 1186.74 363.284 1186.15 365.557C1184.88 370.696 1185.03 376.094 1186.59 381.149C1188.16 386.203 1191.07 390.715 1195 394.179C1198.79 397.41 1203.38 399.552 1207.35 402.584C1211.31 405.615 1214.8 410.015 1214.8 415.075C1214.8 419.853 1211.57 424.187 1207.54 426.659C1203.52 429.114 1198.79 430.037 1194.14 430.712C1187.9 431.679 1181.58 432.07 1175.26 431.881" stroke="white" stroke-width="0.77624" stroke-miterlimit="10"/>
<path d="M1215.22 476.119L1203.54 472.962C1203.54 472.962 1199.83 488.846 1202.07 492.556" stroke="#3A395B" stroke-width="0.653846" stroke-miterlimit="10"/>
<path d="M1202.57 477.692L1215.22 480.905" stroke="#3A395B" stroke-width="0.653846" stroke-miterlimit="10"/>
<path d="M1183.66 525.644C1186.83 524.359 1191.38 521.687 1196.62 516.219C1196.71 516.123 1196.83 516.064 1196.96 516.054C1197.08 516.043 1197.21 516.081 1197.31 516.161C1197.42 516.241 1197.49 516.357 1197.51 516.486C1197.53 516.615 1197.51 516.749 1197.44 516.861C1195.12 520.992 1192.5 524.942 1189.61 528.676C1189.45 528.87 1189.37 529.112 1189.37 529.362C1189.37 529.611 1189.46 529.853 1189.61 530.045C1189.77 530.238 1189.99 530.369 1190.23 530.417C1190.47 530.464 1190.72 530.426 1190.93 530.307C1194.06 528.509 1198.3 525.216 1202.57 519.267C1202.65 519.167 1202.76 519.098 1202.88 519.072C1203 519.045 1203.13 519.063 1203.24 519.122C1203.35 519.181 1203.43 519.277 1203.48 519.394C1203.53 519.511 1203.53 519.641 1203.5 519.762C1202.48 522.573 1201.23 525.291 1199.76 527.885C1199.64 528.105 1199.59 528.364 1199.63 528.615C1199.68 528.867 1199.8 529.095 1200 529.259C1200.19 529.424 1200.43 529.513 1200.68 529.512C1200.93 529.51 1201.17 529.419 1201.36 529.252C1204.88 526.15 1207.76 522.378 1209.86 518.147C1209.91 518.036 1210 517.947 1210.11 517.896C1210.22 517.844 1210.35 517.833 1210.46 517.864C1210.58 517.895 1210.68 517.966 1210.76 518.065C1210.83 518.165 1210.87 518.286 1210.86 518.41C1210.78 520.123 1210.5 521.82 1210.04 523.468C1209.96 523.703 1209.97 523.955 1210.06 524.183C1210.15 524.41 1210.32 524.6 1210.53 524.719C1210.74 524.839 1210.98 524.882 1211.22 524.84C1211.45 524.798 1211.67 524.675 1211.83 524.49C1216.4 519.201 1224.33 508.342 1233.15 488.815L1214.48 472.962C1210.76 478.978 1202.36 489.491 1184.83 500.135C1184.63 500.247 1184.48 500.418 1184.38 500.624C1184.29 500.83 1184.26 501.061 1184.31 501.284C1184.35 501.506 1184.46 501.71 1184.62 501.864C1184.79 502.019 1184.99 502.118 1185.21 502.146C1190.25 502.841 1195.35 502.72 1200.35 501.786C1200.46 501.766 1200.57 501.78 1200.67 501.828C1200.78 501.875 1200.86 501.954 1200.92 502.052C1200.98 502.151 1201 502.265 1201 502.38C1200.99 502.494 1200.95 502.603 1200.88 502.693C1198.05 506.368 1189.41 517.375 1182.56 523.852C1182.38 524.023 1182.27 524.252 1182.24 524.499C1182.21 524.746 1182.26 524.997 1182.39 525.208C1182.52 525.419 1182.72 525.577 1182.95 525.657C1183.18 525.736 1183.43 525.732 1183.66 525.644Z" fill="#FFB494"/>
<path d="M1115.77 483.972L1121.81 500.945C1124.35 505.609 1130.01 505.427 1132.71 500.585C1135.03 496.352 1136.25 491.579 1136.24 486.727C1136.24 484.147 1135.89 481.579 1135.2 479.098L1133.75 471.88L1115.77 483.972Z" fill="#FFB494"/>
<path d="M1127.1 427.939H1121.44" stroke="#3A395B" stroke-width="0.653846" stroke-miterlimit="10"/>
<path d="M1232.21 433.06H1226.56" stroke="#3A395B" stroke-width="0.653846" stroke-miterlimit="10"/>
<path d="M1228.85 716.746L1220.8 691.576L1218.86 716.746" stroke="#3A395B" stroke-width="0.653846" stroke-miterlimit="10"/>
<path d="M1146.87 716.746L1143.41 694.18L1138.54 716.746" stroke="#3A395B" stroke-width="0.653846" stroke-miterlimit="10"/>
<path d="M1134.59 476.118L1117.24 488.102L1120.7 509.556H1136.23L1142.55 492.836L1138.54 477.462L1134.59 476.118Z" fill="#3A5793"/>
<path d="M1117.24 488.102L1136.23 475.079C1136.23 475.079 1146.96 503.416 1122.83 511.891" stroke="#3A395B" stroke-width="0.653846" stroke-miterlimit="10"/>
<path d="M1137.52 479.605L1117.96 492.556" stroke="#3A395B" stroke-width="0.653846" stroke-miterlimit="10"/>
<path d="M1176.84 477.692H1151.38" stroke="#3A395B" stroke-width="0.728732" stroke-miterlimit="10"/>
<path d="M979.024 761.654C978.959 761.65 978.896 761.631 978.84 761.597C978.783 761.563 978.736 761.516 978.702 761.459C978.636 761.371 978.603 761.263 978.608 761.152C978.613 761.042 978.655 760.937 978.728 760.855C980.923 758.896 986.403 756.849 986.635 756.763C986.738 756.739 986.845 756.756 986.935 756.811C987.025 756.866 987.09 756.955 987.118 757.058C987.163 757.154 987.17 757.264 987.137 757.364C987.104 757.465 987.034 757.549 986.941 757.598C986.885 757.618 981.329 759.694 979.216 761.58C979.163 761.628 979.095 761.654 979.024 761.654Z" fill="#3A395B"/>
<path d="M1011.49 410.594L1012.57 414.769L974.376 421.699L1011.49 410.594Z" fill="#3A395B"/>
<path d="M980.335 437.411H986.939" stroke="#3A395B" stroke-width="0.673976" stroke-miterlimit="10"/>
<path d="M1035.49 528.735C1035.49 528.735 1017.11 721.016 1013.94 734.601H977.715C977.715 734.601 992.384 551.987 986.105 528.735H1035.49Z" fill="#FFB494"/>
<path d="M1035.49 528.735C1040.04 554.184 1044.12 580.971 1047.53 609.027C1052.94 653.509 1055.96 695.523 1057.32 734.601H1089.91C1089.91 734.601 1089.03 563.873 1077.43 530.271L1035.49 528.735Z" fill="#FFB494"/>
<path d="M1091.93 718.631H1054.25C1053.39 693.505 1051.86 667.215 1049.46 639.873C1045.99 600.2 1041.13 563.068 1035.49 528.736C1033.71 559.784 1031.33 591.689 1028.36 624.451C1025.4 656.739 1021.99 688.132 1018.13 718.631H975.801C980.278 670.327 983.28 618.622 984.046 563.868C984.486 532.304 985.037 501.807 984.088 472.44H1072.21C1079.94 517.756 1084.31 557.161 1086.93 588.655C1090.61 633.205 1091.27 668.329 1091.67 691.647C1091.83 701.13 1091.91 710.154 1091.93 718.631Z" fill="#7091D1"/>
<path d="M949.197 777.563H1001.42L1007.58 759.2L1010.04 777.563H1018.83L1013.91 734.6H977.687C977.687 734.6 977.687 749.724 966.959 758.126C964.86 759.763 962.513 761.039 960.011 761.903C956.836 763.042 954.089 765.162 952.15 767.969C950.212 770.776 949.18 774.129 949.197 777.563Z" fill="#3A5793"/>
<path d="M966.956 758.126C967.546 760.068 969.062 761.399 971.88 761.77C984.747 763.449 987.768 741.916 988.419 734.6H977.684C977.684 734.6 977.681 749.724 966.956 758.126Z" fill="#FFB494"/>
<path d="M1115.37 777.563H1068.46L1062.93 759.2L1060.72 777.563H1052.82L1057.24 734.6H1089.79C1089.79 734.6 1089.79 749.724 1099.42 758.126C1101.27 759.742 1103.39 761.02 1105.66 761.903C1111.45 764.175 1115.37 770.457 1115.37 777.563Z" fill="#3A5793"/>
<path d="M1099.42 758.126C1098.89 760.068 1097.53 761.399 1095 761.77C1083.44 763.449 1080.73 741.916 1080.14 734.6H1089.79C1089.79 734.6 1089.79 749.724 1099.42 758.126Z" fill="#FFB494"/>
<path d="M977.688 734.599H990.348L990.603 737.828H977.248L977.688 734.599Z" fill="#3A5793"/>
<path d="M1077.4 734.599H1089.84L1090.09 737.828H1076.97L1077.4 734.599Z" fill="#3A5793"/>
<path d="M978.949 718.63H1016.17L1015.83 721.39L978.949 718.63Z" fill="#3A395B"/>
<path d="M1056.68 718.632C1056.68 718.632 1056.77 720.647 1056.77 720.769C1056.78 720.891 1089.75 718.632 1089.75 718.632H1056.68Z" fill="#3A395B"/>
<path d="M1035.49 528.735L1036.93 498.581" stroke="#3A395B" stroke-width="0.701354" stroke-miterlimit="10"/>
<path d="M976.823 707.221H1019.54" stroke="#3A395B" stroke-width="0.701354" stroke-miterlimit="10"/>
<path d="M1053.82 707.221H1091.87" stroke="#3A395B" stroke-width="0.701354" stroke-miterlimit="10"/>
<path d="M995.969 492.066C995.969 492.066 995.942 493.088 995.888 494.998" stroke="#3A395B" stroke-width="0.701354" stroke-miterlimit="10"/>
<path d="M995.717 500.978C994.747 533.741 991.078 648.327 985.707 701.323" stroke="#3A395B" stroke-width="0.701354" stroke-miterlimit="10" stroke-dasharray="5.36 5.36"/>
<path d="M985.396 704.305C985.29 705.303 985.182 706.275 985.073 707.222" stroke="#3A395B" stroke-width="0.701354" stroke-miterlimit="10"/>
<path d="M1036.35 510.8C1036.35 510.8 1056.64 584.492 1062.7 707.223" stroke="#3A395B" stroke-width="0.701354" stroke-miterlimit="10" stroke-dasharray="5.26 5.26"/>
<path d="M1100.7 457.085C1100.32 459.537 1099.37 461.861 1097.93 463.859C1096.48 465.858 1094.59 467.471 1092.4 468.564C1090.31 469.557 1088.03 470.567 1085.74 471.385C1082.16 472.668 1078.57 473.501 1075.79 473.184L1075.62 482.05L1075.48 488.64C1053.79 496.164 1030.63 498.173 1008.01 494.491H1007.98C1006.92 494.33 1005.89 494.154 1004.88 493.961C1004.86 493.961 1004.85 493.945 1004.83 493.945C999.109 492.918 993.448 491.548 987.88 489.842C986.558 489.441 985.288 489.04 984.078 488.64V471.805C984.078 471.805 983.386 471.805 982.255 471.774H982.224C981.298 471.774 980.072 471.742 978.689 471.677H978.673C975.42 471.565 971.226 471.324 967.656 470.828C966.87 470.732 966.132 470.603 965.425 470.475C963.63 470.135 961.924 469.42 960.413 468.375V468.359C957.876 466.52 955.924 463.96 954.801 460.999C953.678 458.037 953.433 454.804 954.096 451.702C954.222 451.044 954.361 450.371 954.505 449.682L954.552 449.441C956.187 441.425 958.402 430.924 960.868 420.231C963.147 410.339 965.645 400.287 968.112 391.887C968.693 389.931 969.258 388.055 969.824 386.311C971.05 382.496 973.847 379.033 977.272 376.114C981.159 372.876 985.516 370.275 990.187 368.403H990.203L990.219 368.387C990.737 368.195 991.24 368.002 991.727 367.826C992.528 367.537 993.377 367.25 994.257 366.945H994.272C1011.4 361.19 1041.96 354.327 1069.55 365.854C1069.77 365.95 1069.97 366.034 1070.19 366.124C1077.42 369.234 1083 375.775 1085.64 383.839C1086.77 387.286 1088.06 391.359 1089.39 395.895C1091.09 401.603 1092.87 407.999 1094.52 414.717C1096.04 420.969 1097.45 427.494 1098.55 433.971C1099.47 439.15 1100.17 444.295 1100.6 449.249C1100.72 450.66 1100.82 452.037 1100.89 453.402C1100.97 454.633 1100.91 455.869 1100.7 457.085Z" fill="#F8B600"/>
<path d="M990.227 368.379L990.211 368.395H990.195C986.99 371.168 986.032 376.908 980.894 377.132C979.611 377.213 978.338 376.852 977.28 376.106" stroke="white" stroke-width="0.717459" stroke-miterlimit="10"/>
<path d="M1069.56 365.846C1067.09 368.797 1065.83 373.381 1061.25 373.573C1054.55 373.878 1054.13 364.259 1047.43 364.564C1040.74 364.852 1041.15 374.472 1034.46 374.76C1027.76 375.064 1027.35 365.446 1020.66 365.75C1013.97 366.039 1014.38 375.658 1007.68 375.947C1001.11 376.251 1000.6 367.017 994.28 366.937H994.264" stroke="white" stroke-width="0.717459" stroke-miterlimit="10"/>
<path d="M1089.4 395.89C1088.95 396.026 1088.49 396.101 1088.02 396.114C1081.32 396.403 1080.92 386.8 1074.23 387.088C1067.53 387.393 1067.94 396.996 1061.25 397.285C1054.55 397.59 1054.13 387.97 1047.44 388.275C1040.74 388.564 1041.15 398.182 1034.46 398.471C1027.77 398.776 1027.36 389.157 1020.66 389.461C1013.97 389.75 1014.38 399.369 1007.68 399.657C1000.99 399.962 1000.58 390.343 993.874 390.648C987.176 390.936 987.589 400.556 980.896 400.844C974.563 401.133 973.857 392.523 968.122 391.882" stroke="white" stroke-width="0.717459" stroke-miterlimit="10"/>
<path d="M1094.53 414.711C1092.94 417.179 1091.37 419.665 1088.02 419.825C1081.32 420.114 1080.92 410.51 1074.23 410.799C1067.53 411.104 1067.94 420.707 1061.25 421.011C1054.55 421.3 1054.13 411.696 1047.44 411.985C1040.74 412.29 1041.15 421.893 1034.46 422.198C1027.77 422.486 1027.36 412.883 1020.66 413.171C1013.97 413.476 1014.38 423.079 1007.68 423.384C1000.99 423.673 1000.58 414.07 993.874 414.358C987.176 414.662 987.589 424.265 980.895 424.554C974.197 424.859 973.794 415.239 967.1 415.544C963.941 415.673 962.371 417.882 960.878 420.226" stroke="white" stroke-width="0.717459" stroke-miterlimit="10"/>
<path d="M1098.56 433.965C1094.27 436.146 1093.77 443.279 1088.02 443.536C1081.32 443.824 1080.92 434.221 1074.22 434.51C1067.53 434.815 1067.94 444.418 1061.25 444.723C1054.55 445.011 1054.13 435.408 1047.43 435.697C1040.74 436.001 1041.15 445.604 1034.46 445.909C1027.76 446.198 1027.35 436.594 1020.66 436.883C1013.97 437.188 1014.38 446.791 1007.68 447.095C1000.99 447.384 1000.58 437.78 993.872 438.069C987.174 438.374 987.587 447.977 980.893 448.282C974.195 448.57 973.791 438.968 967.098 439.255C960.561 439.56 960.797 448.731 954.559 449.436" stroke="white" stroke-width="0.717459" stroke-miterlimit="10"/>
<path d="M978.696 471.671H978.681C973.998 470.069 972.962 462.71 967.101 462.966C963.628 463.126 962.057 465.772 960.423 468.353V468.369" stroke="white" stroke-width="0.717459" stroke-miterlimit="10"/>
<path d="M1100.7 457.085C1094.32 457.646 1094.6 466.96 1088.02 467.246C1081.32 467.551 1080.92 457.932 1074.22 458.237C1067.53 458.525 1067.94 468.144 1061.25 468.432C1054.55 468.721 1054.13 459.118 1047.43 459.423C1040.74 459.711 1041.15 469.314 1034.46 469.619C1027.76 469.907 1027.35 460.304 1020.66 460.593C1013.97 460.897 1014.38 470.501 1007.68 470.805C1000.99 471.094 1000.58 461.491 993.872 461.78C987.666 462.068 987.571 470.323 982.261 471.767H982.229" stroke="white" stroke-width="0.717459" stroke-miterlimit="10"/>
<path d="M1004.89 493.954C1004.87 493.954 1004.86 493.938 1004.84 493.938C1000.69 491.935 999.482 485.25 993.874 485.506C990.877 485.635 989.301 487.638 987.887 489.835" stroke="white" stroke-width="0.717459" stroke-miterlimit="10"/>
<path d="M1075.62 482.045C1075.16 481.963 1074.69 481.931 1074.22 481.949C1067.52 482.237 1067.94 491.857 1061.24 492.146C1054.55 492.449 1054.13 482.831 1047.43 483.135C1040.74 483.424 1041.15 493.043 1034.45 493.332C1027.76 493.636 1027.35 484.017 1020.66 484.322C1014.08 484.611 1014.36 493.909 1008.01 494.484H1007.98" stroke="white" stroke-width="0.717459" stroke-miterlimit="10"/>
<path d="M994.754 393.386C994.754 393.386 988.575 435.964 984.09 444.464C984.09 444.464 995.336 440.431 1001.48 439.098" stroke="#3A395B" stroke-width="0.709406" stroke-miterlimit="10"/>
<path d="M984.088 444.467L974.046 448.074" stroke="#3A395B" stroke-width="0.709406" stroke-miterlimit="10"/>
<path d="M1005.26 433.959C1005.26 433.959 989.242 427.072 981.838 444.56C981.74 444.785 981.694 445.031 981.706 445.278C981.719 445.524 981.788 445.764 981.908 445.979C982.028 446.193 982.196 446.375 982.399 446.51C982.601 446.645 982.832 446.73 983.072 446.757C986.305 447.088 992.538 447.844 994.794 448.939L1005.26 433.959Z" fill="#FFB494"/>
<path d="M1075.79 473.173C1075.79 473.173 1009.81 461.643 994.333 449.963L1005.79 432.936C1005.79 432.936 1058.47 439.141 1069.25 443.263C1069.25 443.263 1061.84 403.627 1060.83 392.699" stroke="#3A395B" stroke-width="0.709406" stroke-miterlimit="10"/>
<path d="M984.091 471.799C984.091 471.799 1009.66 468.292 1025.72 462.116" stroke="#3A395B" stroke-width="0.709406" stroke-miterlimit="10"/>
<path d="M1069.25 443.263L1079.85 446.527" stroke="#3A395B" stroke-width="0.709406" stroke-miterlimit="10"/>
<path d="M1061.56 422.733L1071.05 418.767C1073.04 419.127 1070.25 423.798 1067.26 425.332C1066.63 427.235 1075.08 427.826 1078.92 425.602C1081.69 426.37 1074.25 430.628 1068.43 430.505C1066.9 432.338 1073.16 434.296 1080.25 431.245C1080.7 431.065 1081.15 431.456 1080.9 431.828C1079.88 433.44 1078.44 434.733 1076.74 435.564C1075.04 436.395 1073.15 436.732 1071.27 436.539C1069 437.97 1076.52 439.304 1080.13 438.117C1082.42 438.976 1076.23 442.284 1072.64 441.214C1070.34 441.987 1075.55 443.653 1076.75 443.56C1078.37 445.019 1072.87 445.67 1069.66 444.739C1063.4 443.321 1051.17 435.336 1061.56 422.733Z" fill="#FFB494"/>
<path d="M1021.64 434.932C1021.64 434.932 1050.8 430.368 1058 428.997" stroke="#3A395B" stroke-width="0.709406" stroke-miterlimit="10"/>
<path d="M1017.33 361.187C1017.33 361.187 1018.3 374.617 1031.02 373.856C1043.74 373.096 1039.82 359.593 1039.82 359.593C1039.82 359.593 1022.77 360.188 1017.33 361.187Z" fill="#3A5793"/>
<path d="M1047.55 338.279C1047.02 345.097 1044.45 351.267 1037.64 353.621L1038.36 362.731C1038.45 363.807 1038.33 364.889 1038 365.915C1037.67 366.94 1037.14 367.889 1036.45 368.705C1035.76 369.521 1034.92 370.189 1033.97 370.668C1033.02 371.148 1031.99 371.431 1030.93 371.499C1030.56 371.522 1030.19 371.528 1029.83 371.514C1027.1 371.397 1024.53 370.203 1022.65 368.184C1020.77 366.166 1019.74 363.481 1019.76 360.698L1019.21 345.661L1013.85 344.647C1012.79 344.464 1011.8 343.99 1010.98 343.275C1010.17 342.561 1009.56 341.634 1009.22 340.593C1009.18 340.462 1009.14 340.33 1009.11 340.193L1008.77 338.698C1008.56 337.8 1008.56 336.866 1008.76 335.967C1008.96 335.067 1009.36 334.226 1009.92 333.508C1010.49 332.789 1011.21 332.212 1012.03 331.82C1012.85 331.427 1013.74 331.23 1014.64 331.244L1014.65 331.016C1014.75 328.588 1016.02 307.569 1031.04 308.733C1034.62 309.05 1038 310.525 1040.7 312.943C1043.4 315.361 1045.27 318.596 1046.05 322.177C1047.05 326.466 1047.59 330.853 1047.66 335.262C1047.66 336.276 1047.63 337.284 1047.55 338.279Z" fill="#FFB494"/>
<path d="M1039.38 341.042C1039.57 341.034 1039.75 340.988 1039.92 340.907C1040.09 340.826 1040.24 340.712 1040.37 340.57C1041.95 338.788 1039.42 332.387 1038.89 331.12C1038.85 331.013 1038.77 330.928 1038.66 330.884C1038.55 330.84 1038.44 330.841 1038.33 330.886C1038.22 330.931 1038.14 331.017 1038.1 331.125C1038.06 331.233 1038.06 331.354 1038.1 331.461C1039.23 334.192 1040.67 338.925 1039.73 339.983C1039.66 340.065 1039.44 340.31 1038.68 340.073C1038.58 340.04 1038.46 340.053 1038.36 340.107C1038.26 340.162 1038.19 340.254 1038.15 340.364C1038.12 340.475 1038.13 340.594 1038.18 340.696C1038.23 340.798 1038.32 340.875 1038.43 340.91C1038.74 341.014 1039.06 341.059 1039.38 341.042Z" fill="#3A395B"/>
<path d="M1029.13 337.927C1029.08 336.785 1030.67 335.788 1032.68 335.699C1034.69 335.61 1036.36 336.463 1036.41 337.605C1036.46 338.747 1034.87 339.744 1032.86 339.833C1030.85 339.922 1029.18 339.069 1029.13 337.927Z" fill="#FC6D6D"/>
<path d="M1047.55 338.281C1046.83 338.505 1046.07 338.566 1045.33 338.46C1043.49 338.227 1042.1 337.188 1042.23 336.146C1042.35 335.105 1043.95 334.444 1045.79 334.677C1046.44 334.757 1047.07 334.956 1047.66 335.264C1047.66 336.278 1047.63 337.286 1047.55 338.281Z" fill="#FC6D6D"/>
<path d="M1037.64 353.624C1037.64 353.624 1033.5 354.883 1028.78 351.08C1029.69 352.666 1031.03 353.959 1032.63 354.812C1034.23 355.666 1036.03 356.047 1037.83 355.911L1037.64 353.624Z" fill="#3A395B"/>
<path d="M1013.82 344.642C1013.02 344.491 1012.26 344.181 1011.57 343.728C1014.38 348.53 1017.74 352.708 1019.47 352.736L1019.2 345.664L1013.84 344.648C1013.84 344.648 1013.83 344.642 1013.82 344.642Z" fill="#3A395B"/>
<path d="M1008.15 318.583C1004.5 327.822 1007.9 336.198 1008.64 337.933C1008.56 337.083 1008.65 336.223 1008.91 335.412C1009.17 334.6 1009.6 333.854 1010.16 333.223C1010.73 332.591 1011.42 332.089 1012.19 331.748C1012.95 331.407 1013.78 331.236 1014.62 331.245H1014.64C1014.64 331.245 1023.49 338.002 1038.67 319.892C1040.81 323.15 1043.69 325.829 1047.07 327.697C1047.17 327.758 1047.27 327.823 1047.38 327.877C1047.63 328.008 1047.92 328.063 1048.2 328.035C1049.01 327.829 1049.85 309.532 1040.62 305.049C1039.1 304.307 1037.46 304.255 1034.19 304.149C1029.06 303.988 1022.45 303.782 1016.34 308.031C1012.66 310.656 1009.81 314.325 1008.15 318.583Z" fill="#3A395B"/>
<path d="M1027.05 328.747C1027.67 328.437 1028.32 328.186 1028.99 327.997C1029.65 327.806 1030.33 327.683 1031.01 327.63C1031.68 327.589 1032.34 327.644 1032.99 327.792C1033.61 327.953 1034.2 328.225 1034.73 328.595L1034.77 328.621C1034.92 328.719 1035.1 328.754 1035.27 328.718C1035.45 328.681 1035.6 328.576 1035.69 328.426C1035.79 328.275 1035.82 328.091 1035.79 327.915C1035.75 327.739 1035.65 327.584 1035.5 327.485L1035.47 327.466C1034.78 327.042 1034.03 326.747 1033.24 326.595C1032.47 326.469 1031.69 326.453 1030.91 326.549C1030.16 326.654 1029.42 326.834 1028.71 327.089C1028 327.339 1027.31 327.658 1026.66 328.039C1026.57 328.093 1026.51 328.179 1026.48 328.28C1026.45 328.38 1026.47 328.488 1026.51 328.579C1026.56 328.671 1026.64 328.741 1026.74 328.773C1026.84 328.805 1026.94 328.798 1027.04 328.754L1027.05 328.747Z" fill="#3A395B"/>
<path d="M1049.03 327.673C1048.34 327.349 1047.63 327.093 1046.9 326.906C1046.17 326.715 1045.42 326.599 1044.66 326.56C1043.89 326.532 1043.11 326.616 1042.35 326.811C1041.58 327.032 1040.85 327.392 1040.2 327.876C1040.05 327.98 1039.96 328.138 1039.93 328.316C1039.9 328.494 1039.94 328.676 1040.04 328.824C1040.14 328.971 1040.3 329.071 1040.47 329.101C1040.64 329.132 1040.82 329.091 1040.97 328.986L1040.99 328.967L1041.03 328.936C1041.53 328.521 1042.09 328.198 1042.7 327.982C1043.33 327.777 1043.99 327.664 1044.65 327.646C1045.34 327.638 1046.03 327.701 1046.7 327.833C1047.38 327.962 1048.05 328.155 1048.69 328.41L1048.71 328.417C1048.76 328.438 1048.81 328.45 1048.86 328.451C1048.91 328.452 1048.97 328.442 1049.01 328.422C1049.06 328.403 1049.11 328.374 1049.14 328.337C1049.18 328.299 1049.21 328.255 1049.23 328.206C1049.25 328.157 1049.27 328.105 1049.27 328.052C1049.27 327.998 1049.26 327.945 1049.24 327.896C1049.22 327.846 1049.19 327.801 1049.15 327.763C1049.12 327.724 1049.07 327.694 1049.03 327.673Z" fill="#3A395B"/>
<path d="M1031.13 331.985C1031.09 331.119 1031.52 330.398 1032.07 330.373C1032.63 330.348 1033.11 331.03 1033.15 331.895C1033.19 332.761 1032.76 333.482 1032.21 333.507C1031.65 333.531 1031.17 332.85 1031.13 331.985Z" fill="#3A395B"/>
<path d="M1043.06 331.475C1043.02 330.609 1043.45 329.888 1044 329.863C1044.56 329.839 1045.04 330.52 1045.08 331.385C1045.11 332.251 1044.69 332.972 1044.14 332.997C1043.58 333.022 1043.1 332.34 1043.06 331.475Z" fill="#3A395B"/>
<path d="M1011.76 341.039L1012.57 340.747C1011.9 338.803 1011.91 337.291 1012.61 336.25C1012.98 335.793 1013.45 335.42 1013.97 335.156C1014.5 334.892 1015.07 334.742 1015.66 334.715L1015.63 333.84C1014.91 333.866 1014.21 334.05 1013.56 334.38C1012.92 334.709 1012.35 335.176 1011.9 335.75C1011.04 337.033 1010.99 338.812 1011.76 341.039Z" fill="#3A395B"/>
<path d="M1033.94 344.094C1033.82 344.081 1033.71 344.099 1033.61 344.147C1033.51 344.194 1033.42 344.269 1033.36 344.362C1033.29 344.456 1033.26 344.566 1033.25 344.68C1033.24 344.793 1033.27 344.907 1033.32 345.008C1033.64 345.698 1034.15 346.283 1034.78 346.698C1035.4 347.113 1036.13 347.342 1036.88 347.358C1037.51 347.354 1038.12 347.202 1038.67 346.914C1039.23 346.626 1039.71 346.21 1040.08 345.699C1040.14 345.609 1040.18 345.504 1040.19 345.395C1040.2 345.286 1040.18 345.175 1040.14 345.075C1040.09 344.975 1040.02 344.889 1039.94 344.825C1039.85 344.761 1039.75 344.721 1039.64 344.71L1033.94 344.094Z" fill="#D55459"/>
<path d="M992.459 336.566C984.527 336.566 978.098 330.006 978.098 321.913C978.098 313.82 984.527 307.26 992.459 307.26C1000.39 307.26 1006.82 313.82 1006.82 321.913C1006.82 330.006 1000.39 336.566 992.459 336.566Z" fill="#3A395B"/>
<path d="M1007.63 318.302C1006.07 320.44 1003.95 324.518 1005.94 329.143C1005.98 329.245 1006.06 329.329 1006.15 329.384C1006.24 329.439 1006.35 329.461 1006.46 329.447C1006.57 329.433 1006.67 329.383 1006.74 329.306C1006.82 329.228 1006.87 329.127 1006.88 329.018C1007.2 326.59 1007.86 321.855 1008.51 318.707C1008.53 318.595 1008.51 318.479 1008.46 318.377C1008.41 318.275 1008.33 318.193 1008.23 318.146C1008.13 318.099 1008.01 318.088 1007.9 318.117C1007.8 318.145 1007.7 318.21 1007.63 318.302Z" fill="#7091D1"/>
<path d="M967.901 467.825C967.903 468.829 967.824 469.832 967.666 470.823C966.88 470.727 966.141 470.598 965.434 470.469C957.502 468.978 952.362 460.37 954.106 451.697C954.232 451.039 954.37 450.366 954.515 449.677C958.374 450.809 961.768 453.192 964.183 456.466C966.598 459.74 967.903 463.727 967.901 467.825Z" fill="#3A5793"/>
<path d="M1092.41 468.563C1090.32 469.557 1088.04 470.567 1085.74 471.385C1085.52 470.213 1085.41 469.021 1085.41 467.826C1085.41 463.403 1086.93 459.12 1089.71 455.724C1092.48 452.328 1096.34 450.035 1100.61 449.245C1100.73 450.656 1100.83 452.032 1100.91 453.397C1101.12 456.5 1100.42 459.597 1098.91 462.297C1097.4 464.997 1095.13 467.178 1092.41 468.563Z" fill="#3A5793"/>
<defs>
<linearGradient id="paint0_linear_193_96" x1="987.5" y1="-44.5" x2="1038.87" y2="656.737" gradientUnits="userSpaceOnUse">
<stop offset="0.00655767" stop-color="#BF599C" stop-opacity="0"/>
<stop offset="0.328185" stop-color="#FFE7F3" stop-opacity="0.16"/>
<stop offset="1" stop-color="#F2D0DA"/>
</linearGradient>
<linearGradient id="paint1_linear_193_96" x1="847.053" y1="-188.435" x2="929.634" y2="938.929" gradientUnits="userSpaceOnUse">
<stop offset="0.00655767" stop-color="#FEF7EC"/>
<stop offset="0.328185" stop-color="#FFF4E3"/>
<stop offset="1" stop-color="#FEF0DA"/>
</linearGradient>
</defs>
</svg>
